<svg xmlns="http://www.w3.org/2000/svg" xmlns:xlink="http://www.w3.org/1999/xlink" width="50" zoomAndPan="magnify" viewBox="0 0 375 374.999991" height="50" preserveAspectRatio="xMidYMid meet" version="1.0"><path stroke-linecap="butt" transform="matrix(2.324732, 0, 0, 2.324732, 60.267159, -2.365312)" fill="none" stroke-linejoin="miter" d="M 29.523918 73.999672 L 37.357483 52.377552 L 41.502787 56.606871 L 47.051143 56.606871 L 40.741611 73.999672 L 60.569168 73.999672 C 61.195921 73.999672 61.957097 73.796355 62.514958 73.441811 L 67.574345 70.887753 C 68.673263 70.328213 69.503332 69.36372 69.926768 68.248 L 84.20597 28.893658 L 57.101026 28.893658 L 50.65539 46.760304 L 39.437697 46.760304 L 45.885014 28.893658 L 18.78007 28.893658 L 2.418974 73.999672 Z M 29.523918 73.999672 " stroke="#0a5ec2" stroke-width="18.192616" stroke-opacity="1" stroke-miterlimit="4"/><g fill="#ff4e1f" fill-opacity="1"><g transform="translate(60.267159, 169.664826)"><g><path d="M 68.628906 0 L 86.835938 -50.265625 L 96.5 -40.4375 L 109.390625 -40.4375 L 94.730469 0 L 140.804688 0 C 142.253906 0 144.027344 -0.484375 145.316406 -1.289062 L 157.078125 -7.25 C 159.652344 -8.539062 161.585938 -10.792969 162.554688 -13.371094 L 195.742188 -104.878906 L 132.75 -104.878906 L 117.765625 -63.3125 L 91.667969 -63.3125 L 106.652344 -104.878906 L 43.660156 -104.878906 L 5.636719 0 Z M 68.628906 0 "/></g></g></g><path stroke-linecap="butt" transform="matrix(2.324732, 0, 0, 2.324732, 103.408606, 128.112589)" fill="none" stroke-linejoin="miter" d="M 29.523564 74.000776 L 37.35713 52.376976 L 41.502434 56.607975 L 47.050789 56.607975 L 40.741257 74.000776 L 60.570495 74.000776 C 61.195567 74.000776 61.956744 73.797459 62.516284 73.441235 L 67.573992 70.887177 C 68.674589 70.329317 69.502978 69.364824 69.926414 68.247424 L 84.205616 28.894762 L 57.100673 28.894762 L 50.655036 46.759728 L 39.437343 46.759728 L 45.88466 28.894762 L 18.779717 28.894762 L 2.418621 74.000776 Z M 29.523564 74.000776 " stroke="#0a5ec2" stroke-width="18.192616" stroke-opacity="1" stroke-miterlimit="4"/><g fill="#ff4e1f" fill-opacity="1"><g transform="translate(103.408606, 300.142728)"><g><path d="M 68.628906 0 L 86.835938 -50.265625 L 96.5 -40.4375 L 109.390625 -40.4375 L 94.730469 0 L 140.804688 0 C 142.253906 0 144.027344 -0.484375 145.316406 -1.289062 L 157.078125 -7.25 C 159.652344 -8.539062 161.585938 -10.792969 162.554688 -13.371094 L 195.742188 -104.878906 L 132.75 -104.878906 L 117.765625 -63.3125 L 91.667969 -63.3125 L 106.652344 -104.878906 L 43.660156 -104.878906 L 5.636719 0 Z M 68.628906 0 "/></g></g></g></svg>
