<svg xmlns="http://www.w3.org/2000/svg" xmlns:xlink="http://www.w3.org/1999/xlink" zoomAndPan="magnify" preserveAspectRatio="xMidYMid meet" version="1.0" viewBox="-19.11 112.82 391.27 149.05"><defs><g/><clipPath id="be22b2081c"><path d="M 55 134 L 173 134 L 173 145 L 55 145 Z M 55 134 " clip-rule="nonzero"/></clipPath><clipPath id="880820eb3c"><path d="M 173.027344 140.476562 L 172.621094 148.054688 L 55.402344 141.742188 L 55.8125 134.160156 Z M 173.027344 140.476562 " clip-rule="nonzero"/></clipPath><clipPath id="41883b2d2a"><path d="M 172.824219 144.265625 L 55.429688 141.742188 L 55.835938 134.164062 Z M 172.824219 144.265625 " clip-rule="nonzero"/></clipPath><clipPath id="cfc143bbde"><path d="M 75 151 L 215 151 L 215 161 L 75 161 Z M 75 151 " clip-rule="nonzero"/></clipPath><clipPath id="694decd508"><path d="M 215.109375 156.082031 L 214.785156 165.074219 L 75.75 160.046875 L 76.074219 151.054688 Z M 215.109375 156.082031 " clip-rule="nonzero"/></clipPath><clipPath id="6c4826b846"><path d="M 214.945312 160.578125 L 75.78125 160.046875 L 76.105469 151.054688 Z M 214.945312 160.578125 " clip-rule="nonzero"/></clipPath><clipPath id="d9b6091db0"><path d="M 2 134 L 109 134 L 109 241 L 2 241 Z M 2 134 " clip-rule="nonzero"/></clipPath><clipPath id="ba7c44714c"><path d="M 44.585938 112.816406 L 129.9375 176.515625 L 66.238281 261.867188 L -19.113281 198.167969 Z M 44.585938 112.816406 " clip-rule="nonzero"/></clipPath><clipPath id="e9a80e8c0e"><path d="M 44.585938 112.816406 L 129.9375 176.515625 L 66.238281 261.867188 L -19.113281 198.167969 Z M 44.585938 112.816406 " clip-rule="nonzero"/></clipPath><clipPath id="558a0c7f68"><path d="M 16 139 L 104 139 L 104 218 L 16 218 Z M 16 139 " clip-rule="nonzero"/></clipPath><clipPath id="47617f99bc"><path d="M 44.585938 112.816406 L 129.9375 176.515625 L 66.238281 261.867188 L -19.113281 198.167969 Z M 44.585938 112.816406 " clip-rule="nonzero"/></clipPath><clipPath id="4dad554bb6"><path d="M 44.585938 112.816406 L 129.9375 176.515625 L 66.238281 261.867188 L -19.113281 198.167969 Z M 44.585938 112.816406 " clip-rule="nonzero"/></clipPath><clipPath id="09a688a55c"><path d="M 24 171 L 78 171 L 78 220 L 24 220 Z M 24 171 " clip-rule="nonzero"/></clipPath><clipPath id="d1dd1fcb59"><path d="M 44.585938 112.816406 L 129.9375 176.515625 L 66.238281 261.867188 L -19.113281 198.167969 Z M 44.585938 112.816406 " clip-rule="nonzero"/></clipPath><clipPath id="d997b82c2e"><path d="M 44.585938 112.816406 L 129.9375 176.515625 L 66.238281 261.867188 L -19.113281 198.167969 Z M 44.585938 112.816406 " clip-rule="nonzero"/></clipPath><clipPath id="5c49cfb860"><path d="M 13 147 L 96 147 L 96 231 L 13 231 Z M 13 147 " clip-rule="nonzero"/></clipPath><clipPath id="125b5d2032"><path d="M 44.585938 112.816406 L 129.9375 176.515625 L 66.238281 261.867188 L -19.113281 198.167969 Z M 44.585938 112.816406 " clip-rule="nonzero"/></clipPath><clipPath id="59ad892112"><path d="M 44.585938 112.816406 L 129.9375 176.515625 L 66.238281 261.867188 L -19.113281 198.167969 Z M 44.585938 112.816406 " clip-rule="nonzero"/></clipPath></defs><g clip-path="url(#be22b2081c)"><g clip-path="url(#880820eb3c)"><g clip-path="url(#41883b2d2a)"><path fill="#1e1411" d="M 173.027344 140.476562 L 172.621094 148.054688 L 55.433594 141.742188 L 55.839844 134.164062 Z M 173.027344 140.476562 " fill-opacity="1" fill-rule="nonzero"/></g></g></g><g clip-path="url(#cfc143bbde)"><g clip-path="url(#694decd508)"><g clip-path="url(#6c4826b846)"><path fill="#1e1411" d="M 215.109375 156.082031 L 214.785156 165.074219 L 75.785156 160.046875 L 76.109375 151.054688 Z M 215.109375 156.082031 " fill-opacity="1" fill-rule="nonzero"/></g></g></g><g clip-path="url(#d9b6091db0)"><g clip-path="url(#ba7c44714c)"><g clip-path="url(#e9a80e8c0e)"><path fill="#1e1411" d="M 87.351562 144.734375 C 63.773438 127.136719 30.269531 132 12.671875 155.582031 C -4.929688 179.164062 -0.0585938 212.664062 23.519531 230.261719 C 47.101562 247.863281 80.601562 242.996094 98.199219 219.414062 C 115.796875 195.835938 110.933594 162.332031 87.351562 144.734375 Z M 63.007812 217.246094 C 62.777344 217.332031 62.542969 217.414062 62.308594 217.496094 C 62.191406 217.539062 62.070312 217.578125 61.949219 217.613281 C 61.554688 217.746094 61.160156 217.867188 60.761719 217.980469 C 60.644531 218.011719 60.527344 218.046875 60.414062 218.078125 C 60.179688 218.140625 59.945312 218.203125 59.710938 218.261719 C 59.585938 218.292969 59.457031 218.320312 59.328125 218.347656 C 58.945312 218.4375 58.5625 218.515625 58.179688 218.589844 C 58.035156 218.617188 57.890625 218.644531 57.746094 218.667969 C 57.523438 218.707031 57.296875 218.746094 57.074219 218.777344 C 56.847656 218.808594 56.609375 218.839844 56.378906 218.871094 C 56.097656 218.90625 55.820312 218.933594 55.542969 218.960938 C 55.367188 218.976562 55.191406 218.992188 55.015625 219.007812 C 54.746094 219.027344 54.472656 219.042969 54.199219 219.058594 C 53.953125 219.070312 53.703125 219.082031 53.457031 219.085938 C 53.261719 219.089844 53.066406 219.09375 52.871094 219.09375 C 52.644531 219.09375 52.417969 219.089844 52.191406 219.085938 C 51.941406 219.082031 51.695312 219.074219 51.445312 219.0625 C 51.195312 219.050781 50.949219 219.035156 50.703125 219.015625 C 50.53125 219.003906 50.359375 218.992188 50.191406 218.976562 C 49.847656 218.945312 49.503906 218.90625 49.160156 218.863281 C 49.019531 218.847656 48.878906 218.824219 48.738281 218.804688 C 48.46875 218.765625 48.199219 218.722656 47.933594 218.679688 C 47.792969 218.65625 47.65625 218.632812 47.515625 218.605469 C 47.160156 218.539062 46.800781 218.464844 46.445312 218.382812 C 46.316406 218.351562 46.1875 218.320312 46.0625 218.289062 C 45.75 218.214844 45.441406 218.132812 45.128906 218.046875 C 45.046875 218.023438 44.960938 218 44.875 217.976562 C 44.503906 217.867188 44.132812 217.75 43.765625 217.625 C 43.652344 217.585938 43.542969 217.546875 43.429688 217.507812 C 43.054688 217.375 42.683594 217.238281 42.3125 217.089844 C 42.253906 217.066406 42.199219 217.042969 42.140625 217.019531 C 41.800781 216.882812 41.46875 216.734375 41.132812 216.582031 C 41.042969 216.542969 40.953125 216.5 40.859375 216.460938 C 40.492188 216.285156 40.125 216.105469 39.761719 215.914062 C 39.6875 215.875 39.613281 215.835938 39.539062 215.796875 C 39.207031 215.617188 38.878906 215.433594 38.554688 215.242188 C 38.496094 215.207031 38.4375 215.175781 38.375 215.140625 C 38.015625 214.925781 37.660156 214.699219 37.304688 214.464844 C 37.226562 214.410156 37.144531 214.355469 37.066406 214.304688 C 36.703125 214.058594 36.347656 213.808594 35.996094 213.546875 C 35.644531 213.285156 35.300781 213.011719 34.96875 212.738281 C 34.894531 212.675781 34.820312 212.617188 34.746094 212.554688 C 34.421875 212.28125 34.101562 212.003906 33.792969 211.71875 C 33.742188 211.671875 33.695312 211.625 33.644531 211.578125 C 33.367188 211.320312 33.097656 211.058594 32.835938 210.792969 C 32.777344 210.730469 32.714844 210.671875 32.65625 210.609375 C 32.371094 210.316406 32.09375 210.019531 31.820312 209.714844 C 31.753906 209.636719 31.691406 209.5625 31.625 209.488281 C 31.382812 209.210938 31.152344 208.929688 30.921875 208.644531 C 30.882812 208.597656 30.84375 208.550781 30.804688 208.5 C 30.558594 208.1875 30.320312 207.867188 30.085938 207.550781 C 30.019531 207.453125 29.949219 207.355469 29.882812 207.261719 C 29.65625 206.941406 29.4375 206.621094 29.226562 206.296875 C 29.179688 206.222656 29.132812 206.144531 29.085938 206.070312 C 28.917969 205.800781 28.75 205.523438 28.589844 205.25 C 28.523438 205.132812 28.457031 205.023438 28.390625 204.90625 C 28.210938 204.589844 28.039062 204.269531 27.871094 203.941406 C 27.808594 203.816406 27.746094 203.691406 27.683594 203.566406 C 27.5625 203.324219 27.445312 203.078125 27.332031 202.828125 C 27.273438 202.699219 27.214844 202.574219 27.15625 202.445312 C 27.015625 202.128906 26.882812 201.808594 26.753906 201.484375 C 26.691406 201.328125 26.632812 201.167969 26.570312 201.007812 C 26.480469 200.773438 26.398438 200.539062 26.316406 200.304688 C 26.234375 200.070312 26.15625 199.835938 26.082031 199.601562 C 26.011719 199.382812 25.945312 199.167969 25.878906 198.949219 C 25.824219 198.761719 25.769531 198.574219 25.71875 198.386719 C 25.652344 198.144531 25.589844 197.902344 25.53125 197.65625 C 25.46875 197.394531 25.40625 197.132812 25.351562 196.867188 C 25.316406 196.695312 25.277344 196.523438 25.246094 196.351562 C 25.191406 196.078125 25.144531 195.808594 25.097656 195.535156 C 25.058594 195.300781 25.019531 195.066406 24.988281 194.832031 C 24.957031 194.59375 24.925781 194.378906 24.898438 194.152344 C 24.882812 194.003906 24.867188 193.859375 24.851562 193.714844 C 24.8125 193.328125 24.78125 192.9375 24.757812 192.546875 C 24.746094 192.414062 24.738281 192.285156 24.734375 192.152344 C 24.722656 191.910156 24.710938 191.671875 24.707031 191.429688 C 24.703125 191.308594 24.703125 191.1875 24.703125 191.070312 C 24.695312 190.652344 24.699219 190.238281 24.710938 189.820312 C 24.714844 189.695312 24.71875 189.570312 24.722656 189.445312 C 24.851562 186.460938 25.421875 183.558594 26.425781 180.742188 C 27.433594 177.925781 28.832031 175.320312 30.625 172.929688 C 30.945312 172.496094 31.277344 172.078125 31.621094 171.671875 C 23.273438 184.214844 26.113281 201.296875 38.332031 210.417969 C 50.550781 219.535156 67.734375 217.398438 77.386719 205.828125 C 77.089844 206.269531 76.785156 206.707031 76.460938 207.140625 C 74.753906 209.4375 72.753906 211.445312 70.464844 213.164062 C 68.175781 214.886719 65.691406 216.246094 63.007812 217.246094 Z M 45.589844 186.027344 C 45.394531 186.144531 45.1875 186.210938 44.960938 186.226562 C 44.738281 186.242188 44.523438 186.210938 44.3125 186.125 C 44.105469 186.042969 43.925781 185.917969 43.773438 185.75 C 43.625 185.582031 43.519531 185.390625 43.457031 185.171875 C 43.398438 184.957031 43.390625 184.738281 43.429688 184.515625 C 43.472656 184.292969 43.558594 184.09375 43.695312 183.914062 C 43.832031 183.734375 44 183.59375 44.199219 183.492188 C 44.398438 183.390625 44.613281 183.339844 44.835938 183.335938 C 45.0625 183.335938 45.277344 183.382812 45.480469 183.480469 C 45.683594 183.578125 45.851562 183.714844 45.992188 183.890625 C 46.128906 184.066406 46.222656 184.265625 46.269531 184.484375 C 46.316406 184.707031 46.308594 184.925781 46.253906 185.144531 C 46.152344 185.53125 45.933594 185.824219 45.585938 186.027344 Z M 40.25 193.332031 C 39.871094 193.660156 34.894531 196.722656 32.996094 196.804688 C 32.5 196.824219 31.96875 196.464844 31.457031 195.917969 C 30.363281 192.789062 29.894531 189.566406 30.054688 186.253906 C 30.390625 185.585938 30.792969 185.085938 31.277344 184.964844 C 31.738281 184.851562 32.433594 184.859375 33.230469 184.941406 C 33.429688 184.960938 33.632812 184.984375 33.84375 185.011719 C 34.261719 185.070312 34.691406 185.140625 35.125 185.222656 C 37.0625 185.582031 38.960938 186.113281 39.21875 186.230469 C 39.351562 186.289062 39.53125 186.507812 39.726562 186.8125 C 39.945312 187.167969 40.140625 187.535156 40.3125 187.917969 C 40.347656 189.097656 40.515625 190.261719 40.820312 191.40625 C 40.695312 192.292969 40.46875 193.144531 40.25 193.332031 Z M 50.613281 179.339844 C 50.445312 179.4375 50.269531 179.5 50.078125 179.527344 C 49.890625 179.554688 49.699219 179.542969 49.515625 179.496094 C 49.328125 179.449219 49.160156 179.367188 49.003906 179.25 C 48.851562 179.136719 48.726562 178.996094 48.628906 178.832031 C 48.578125 178.746094 48.539062 178.65625 48.507812 178.566406 C 48.394531 178.238281 48.398438 177.917969 48.515625 177.59375 C 48.632812 177.273438 48.839844 177.023438 49.136719 176.847656 C 49.21875 176.796875 49.308594 176.757812 49.402344 176.722656 C 49.570312 176.667969 49.746094 176.640625 49.921875 176.648438 C 50.101562 176.652344 50.273438 176.691406 50.441406 176.761719 C 50.605469 176.832031 50.75 176.929688 50.878906 177.054688 C 51.007812 177.179688 51.109375 177.324219 51.183594 177.484375 C 51.261719 177.648438 51.304688 177.820312 51.316406 178 C 51.328125 178.175781 51.304688 178.351562 51.253906 178.523438 C 51.199219 178.695312 51.117188 178.851562 51.007812 178.992188 C 50.894531 179.132812 50.761719 179.246094 50.609375 179.339844 Z M 55.019531 172.375 C 53.835938 172.40625 52.675781 172.574219 51.53125 172.878906 C 50.640625 172.757812 49.792969 172.53125 49.605469 172.3125 C 49.277344 171.929688 46.214844 166.957031 46.132812 165.054688 C 46.121094 164.746094 46.253906 164.421875 46.492188 164.101562 C 46.539062 164.035156 46.589844 163.96875 46.644531 163.90625 C 46.761719 163.769531 46.886719 163.640625 47.015625 163.519531 C 47.789062 163.25 48.578125 163.015625 49.371094 162.820312 C 49.769531 162.722656 50.171875 162.636719 50.570312 162.558594 C 52.589844 162.167969 54.625 162.019531 56.679688 162.117188 C 56.765625 162.15625 56.84375 162.199219 56.921875 162.246094 C 57.390625 162.511719 57.746094 162.816406 57.90625 163.164062 C 57.929688 163.21875 57.953125 163.277344 57.96875 163.339844 C 58.039062 163.628906 58.0625 164.007812 58.050781 164.445312 C 58.023438 165.152344 57.945312 165.847656 57.824219 166.542969 C 57.808594 166.648438 57.789062 166.757812 57.769531 166.863281 C 57.636719 167.617188 57.476562 168.378906 57.316406 169.054688 C 57.246094 169.34375 57.179688 169.617188 57.117188 169.867188 C 57.011719 170.28125 56.914062 170.632812 56.839844 170.886719 C 56.808594 170.988281 56.78125 171.070312 56.757812 171.140625 C 56.738281 171.207031 56.71875 171.253906 56.707031 171.285156 C 56.6875 171.324219 56.664062 171.359375 56.632812 171.390625 C 56.398438 171.65625 55.738281 172.046875 55.019531 172.375 Z M 41.925781 170.46875 C 42.117188 170.722656 42.308594 170.984375 42.496094 171.253906 L 42.683594 171.523438 C 42.804688 171.703125 42.929688 171.886719 43.046875 172.066406 C 43.585938 172.882812 44.0625 173.675781 44.398438 174.253906 C 44.46875 174.382812 44.539062 174.503906 44.597656 174.609375 C 44.625 174.660156 44.65625 174.710938 44.675781 174.757812 C 44.777344 174.941406 44.84375 175.074219 44.863281 175.132812 C 44.902344 175.234375 44.898438 175.417969 44.859375 175.648438 C 44.847656 175.726562 44.832031 175.8125 44.8125 175.898438 C 44.71875 176.304688 44.59375 176.703125 44.445312 177.09375 C 44.246094 177.304688 44.050781 177.523438 43.859375 177.75 C 43.667969 177.972656 43.484375 178.207031 43.304688 178.445312 C 43.214844 178.566406 43.132812 178.6875 43.050781 178.8125 C 42.792969 179.175781 42.554688 179.546875 42.332031 179.925781 C 41.796875 180.332031 41.234375 180.679688 40.867188 180.820312 C 40.773438 180.859375 40.671875 180.882812 40.570312 180.882812 C 40.433594 180.867188 40.292969 180.839844 40.15625 180.808594 C 40.105469 180.800781 40.050781 180.789062 39.992188 180.773438 C 39.875 180.75 39.742188 180.71875 39.597656 180.683594 C 38.945312 180.53125 38.050781 180.296875 37.117188 180.011719 C 36.910156 179.949219 36.699219 179.882812 36.492188 179.816406 L 36.179688 179.714844 C 35.867188 179.609375 35.558594 179.5 35.265625 179.390625 C 35.167969 179.351562 35.070312 179.3125 34.972656 179.277344 C 34.113281 178.9375 33.378906 178.570312 32.984375 178.207031 C 32.890625 178.117188 32.8125 178.015625 32.753906 177.898438 C 32.722656 177.835938 32.695312 177.773438 32.671875 177.707031 C 32.621094 177.5625 32.585938 177.417969 32.5625 177.265625 C 32.527344 177.003906 32.515625 176.742188 32.523438 176.476562 C 33.054688 175.375 33.660156 174.316406 34.339844 173.304688 C 34.570312 172.960938 34.808594 172.621094 35.058594 172.289062 C 35.308594 171.957031 35.5625 171.628906 35.828125 171.3125 C 36.351562 170.675781 36.902344 170.074219 37.476562 169.5 C 37.761719 169.21875 38.054688 168.9375 38.351562 168.667969 C 38.523438 168.609375 38.695312 168.5625 38.875 168.523438 C 39.207031 168.453125 39.515625 168.433594 39.78125 168.484375 C 39.910156 168.507812 40.027344 168.550781 40.140625 168.617188 C 40.601562 168.890625 41.160156 169.492188 41.734375 170.21875 C 41.796875 170.300781 41.859375 170.386719 41.925781 170.46875 Z M 50.054688 183.484375 C 50.734375 182.574219 51.585938 181.878906 52.617188 181.402344 C 52.816406 181.3125 53.015625 181.230469 53.21875 181.160156 C 53.476562 181.070312 53.742188 180.996094 54.007812 180.9375 C 54.277344 180.878906 54.546875 180.839844 54.820312 180.8125 C 55.089844 180.789062 55.363281 180.78125 55.636719 180.789062 C 55.914062 180.796875 56.183594 180.820312 56.457031 180.863281 C 56.726562 180.902344 56.992188 180.960938 57.257812 181.035156 C 57.519531 181.109375 57.777344 181.199219 58.03125 181.304688 C 58.285156 181.414062 58.527344 181.535156 58.765625 181.667969 C 59.003906 181.804688 59.234375 181.953125 59.453125 182.117188 C 59.671875 182.28125 59.878906 182.457031 60.078125 182.648438 C 60.277344 182.835938 60.460938 183.039062 60.632812 183.25 C 60.808594 183.460938 60.96875 183.683594 61.113281 183.914062 C 61.261719 184.148438 61.390625 184.386719 61.507812 184.632812 C 61.625 184.882812 61.726562 185.136719 61.8125 185.394531 C 61.898438 185.65625 61.96875 185.921875 62.023438 186.1875 C 62.074219 186.457031 62.113281 186.726562 62.132812 187 C 62.152344 187.273438 62.15625 187.546875 62.144531 187.820312 C 62.132812 188.035156 62.113281 188.25 62.082031 188.464844 C 61.917969 189.589844 61.496094 190.605469 60.816406 191.515625 C 60.554688 191.875 60.261719 192.203125 59.933594 192.5 C 59.605469 192.800781 59.253906 193.066406 58.875 193.292969 C 58.492188 193.523438 58.097656 193.714844 57.679688 193.863281 C 57.261719 194.015625 56.832031 194.121094 56.394531 194.1875 C 55.957031 194.253906 55.515625 194.277344 55.074219 194.253906 C 54.628906 194.234375 54.195312 194.167969 53.765625 194.058594 C 53.332031 193.953125 52.917969 193.800781 52.519531 193.613281 C 52.117188 193.421875 51.738281 193.195312 51.382812 192.929688 C 51.027344 192.664062 50.703125 192.367188 50.40625 192.035156 C 50.109375 191.707031 49.847656 191.351562 49.621094 190.96875 C 49.398438 190.589844 49.210938 190.1875 49.0625 189.769531 C 48.917969 189.351562 48.8125 188.921875 48.75 188.484375 C 48.6875 188.042969 48.671875 187.601562 48.695312 187.160156 C 48.722656 186.71875 48.792969 186.28125 48.902344 185.851562 C 49.015625 185.425781 49.167969 185.011719 49.363281 184.609375 C 49.554688 184.210938 49.785156 183.835938 50.054688 183.484375 Z M 65.578125 183.179688 C 65.328125 183.328125 65.058594 183.394531 64.765625 183.378906 C 64.476562 183.363281 64.214844 183.269531 63.980469 183.097656 C 63.824219 182.980469 63.695312 182.839844 63.59375 182.671875 C 63.496094 182.503906 63.433594 182.320312 63.40625 182.128906 C 63.394531 182.035156 63.390625 181.941406 63.398438 181.847656 C 63.414062 181.53125 63.527344 181.25 63.730469 181.003906 C 63.933594 180.761719 64.191406 180.601562 64.5 180.527344 C 64.808594 180.453125 65.109375 180.476562 65.402344 180.601562 C 65.695312 180.722656 65.925781 180.921875 66.085938 181.195312 C 66.238281 181.449219 66.304688 181.726562 66.289062 182.019531 C 66.257812 182.535156 66.023438 182.917969 65.578125 183.179688 Z M 72.710938 173.792969 C 72.144531 174.238281 71.496094 174.691406 70.867188 175.109375 C 70.6875 175.230469 70.503906 175.34375 70.332031 175.457031 C 69.359375 176.078125 68.480469 176.582031 68.046875 176.804688 C 67.929688 176.867188 67.847656 176.910156 67.800781 176.925781 C 67.53125 177.027344 66.679688 176.824219 65.839844 176.507812 C 65.628906 176.308594 65.410156 176.113281 65.183594 175.921875 C 64.960938 175.730469 64.726562 175.546875 64.488281 175.367188 C 64.25 175.1875 64.003906 175.019531 63.757812 174.855469 C 63.511719 174.695312 63.261719 174.542969 63.007812 174.394531 C 62.46875 173.679688 62.027344 172.921875 62.050781 172.632812 C 62.054688 172.585938 62.070312 172.492188 62.09375 172.363281 C 62.1875 171.886719 62.421875 170.898438 62.738281 169.792969 C 62.796875 169.589844 62.855469 169.382812 62.917969 169.179688 C 63.140625 168.453125 63.390625 167.707031 63.65625 167.035156 C 63.730469 166.84375 63.808594 166.660156 63.886719 166.484375 C 63.925781 166.394531 63.964844 166.308594 64.003906 166.226562 C 64.082031 166.058594 64.164062 165.902344 64.242188 165.757812 C 64.28125 165.683594 64.324219 165.613281 64.363281 165.546875 C 64.4375 165.425781 64.515625 165.308594 64.605469 165.191406 C 64.644531 165.140625 64.683594 165.09375 64.726562 165.050781 C 64.980469 164.773438 65.398438 164.636719 65.914062 164.597656 C 66.09375 164.585938 66.273438 164.582031 66.453125 164.589844 C 67.175781 164.9375 67.890625 165.320312 68.589844 165.742188 C 69.289062 166.164062 69.972656 166.625 70.640625 167.121094 C 71.308594 167.621094 71.945312 168.144531 72.546875 168.695312 C 73.148438 169.246094 73.722656 169.820312 74.261719 170.414062 C 74.378906 170.742188 74.449219 171.074219 74.472656 171.417969 C 74.476562 171.492188 74.476562 171.566406 74.472656 171.636719 C 74.464844 171.839844 74.410156 172.027344 74.3125 172.203125 C 74.28125 172.253906 74.246094 172.308594 74.207031 172.359375 C 74.125 172.476562 74.035156 172.585938 73.9375 172.695312 C 73.886719 172.75 73.828125 172.808594 73.769531 172.867188 C 73.65625 172.984375 73.523438 173.105469 73.390625 173.230469 C 73.320312 173.292969 73.25 173.355469 73.175781 173.417969 C 73.03125 173.539062 72.875 173.667969 72.710938 173.796875 Z M 58.222656 175.46875 C 58.320312 175.472656 58.417969 175.488281 58.511719 175.511719 C 58.773438 175.578125 58.996094 175.707031 59.183594 175.898438 C 59.371094 176.085938 59.496094 176.3125 59.558594 176.574219 C 59.625 176.832031 59.613281 177.089844 59.535156 177.347656 C 59.453125 177.601562 59.316406 177.816406 59.113281 177.996094 C 58.972656 178.121094 58.816406 178.214844 58.640625 178.277344 C 58.363281 178.375 58.078125 178.390625 57.792969 178.316406 C 57.621094 178.269531 57.460938 178.195312 57.316406 178.09375 C 57.167969 177.988281 57.046875 177.863281 56.945312 177.710938 C 56.847656 177.5625 56.777344 177.402344 56.738281 177.226562 C 56.699219 177.050781 56.695312 176.875 56.722656 176.695312 C 56.75 176.519531 56.804688 176.351562 56.894531 176.199219 C 56.984375 176.042969 57.097656 175.90625 57.234375 175.792969 C 57.375 175.679688 57.53125 175.59375 57.699219 175.539062 C 57.871094 175.484375 58.046875 175.457031 58.222656 175.46875 Z M 43.070312 198.070312 C 43.339844 197.96875 44.191406 198.171875 45.03125 198.488281 C 45.890625 199.304688 46.835938 200.011719 47.863281 200.601562 C 48.402344 201.316406 48.84375 202.074219 48.820312 202.363281 C 48.785156 202.867188 47.429688 208.546875 46.144531 209.949219 C 45.804688 210.316406 45.167969 210.4375 44.414062 210.410156 C 41.429688 208.980469 38.828125 207.035156 36.605469 204.582031 C 36.367188 203.867188 36.300781 203.222656 36.558594 202.796875 C 37.535156 201.160156 42.597656 198.25 43.070312 198.070312 Z M 44.863281 192.203125 C 44.992188 192.03125 45.152344 191.890625 45.34375 191.789062 C 45.535156 191.6875 45.738281 191.628906 45.953125 191.621094 C 46.171875 191.609375 46.378906 191.644531 46.578125 191.726562 C 46.78125 191.808594 46.953125 191.933594 47.097656 192.09375 C 47.230469 192.238281 47.332031 192.40625 47.394531 192.59375 C 47.4375 192.710938 47.460938 192.832031 47.46875 192.957031 C 47.480469 193.082031 47.472656 193.203125 47.449219 193.328125 C 47.425781 193.449219 47.390625 193.566406 47.335938 193.679688 C 47.285156 193.792969 47.21875 193.898438 47.136719 193.992188 C 47.058594 194.085938 46.96875 194.171875 46.867188 194.242188 C 46.765625 194.316406 46.65625 194.375 46.539062 194.417969 C 46.421875 194.460938 46.300781 194.492188 46.175781 194.503906 C 46.054688 194.515625 45.929688 194.511719 45.808594 194.496094 C 45.683594 194.476562 45.566406 194.441406 45.449219 194.390625 C 45.335938 194.339844 45.230469 194.277344 45.132812 194.203125 C 45.035156 194.125 44.949219 194.035156 44.875 193.9375 C 44.796875 193.835938 44.738281 193.730469 44.691406 193.613281 C 44.640625 193.5 44.609375 193.378906 44.59375 193.257812 C 44.578125 193.132812 44.578125 193.011719 44.589844 192.886719 C 44.605469 192.761719 44.636719 192.644531 44.683594 192.527344 C 44.730469 192.410156 44.789062 192.304688 44.863281 192.203125 Z M 52.789062 196.636719 C 52.886719 196.644531 52.984375 196.65625 53.078125 196.683594 C 53.265625 196.730469 53.433594 196.8125 53.589844 196.925781 C 53.742188 197.042969 53.867188 197.179688 53.964844 197.347656 C 54.0625 197.511719 54.125 197.6875 54.152344 197.878906 C 54.179688 198.070312 54.167969 198.257812 54.121094 198.441406 C 54.074219 198.628906 53.992188 198.796875 53.878906 198.953125 C 53.761719 199.105469 53.621094 199.230469 53.457031 199.328125 C 53.292969 199.425781 53.113281 199.488281 52.925781 199.515625 C 52.734375 199.542969 52.546875 199.53125 52.359375 199.484375 C 52.175781 199.4375 52.003906 199.355469 51.851562 199.242188 C 51.699219 199.125 51.574219 198.984375 51.476562 198.820312 C 51.378906 198.65625 51.316406 198.476562 51.289062 198.289062 C 51.261719 198.097656 51.269531 197.910156 51.320312 197.722656 C 51.367188 197.535156 51.449219 197.363281 51.570312 197.207031 C 51.875 196.804688 52.285156 196.613281 52.789062 196.636719 Z M 66.382812 188.816406 C 66.570312 188.863281 66.738281 188.945312 66.890625 189.058594 C 67.046875 189.175781 67.171875 189.316406 67.269531 189.480469 C 67.367188 189.644531 67.429688 189.824219 67.457031 190.011719 C 67.484375 190.203125 67.472656 190.390625 67.425781 190.578125 C 67.375 190.761719 67.296875 190.933594 67.179688 191.085938 C 67.066406 191.238281 66.925781 191.363281 66.757812 191.460938 C 66.59375 191.558594 66.417969 191.621094 66.226562 191.648438 C 66.035156 191.675781 65.847656 191.667969 65.664062 191.617188 C 65.476562 191.570312 65.308594 191.488281 65.152344 191.375 C 65 191.257812 64.875 191.117188 64.777344 190.953125 C 64.679688 190.789062 64.617188 190.609375 64.589844 190.421875 C 64.5625 190.230469 64.574219 190.042969 64.621094 189.855469 C 64.667969 189.667969 64.753906 189.496094 64.871094 189.339844 C 65.046875 189.109375 65.273438 188.945312 65.546875 188.851562 C 65.824219 188.753906 66.101562 188.742188 66.382812 188.816406 Z M 70.625 181.667969 C 70.636719 181.65625 70.652344 181.644531 70.671875 181.628906 C 70.734375 181.582031 70.835938 181.515625 70.964844 181.429688 C 71.273438 181.226562 71.753906 180.929688 72.332031 180.59375 C 72.992188 180.210938 73.773438 179.777344 74.554688 179.386719 C 74.652344 179.339844 74.75 179.292969 74.847656 179.246094 C 75.480469 178.929688 76.125 178.660156 76.792969 178.429688 C 76.875 178.402344 76.957031 178.378906 77.035156 178.355469 C 77.3125 178.269531 77.589844 178.21875 77.878906 178.195312 C 78.375 178.175781 78.902344 178.539062 79.417969 179.082031 C 80.507812 182.214844 80.976562 185.433594 80.820312 188.75 C 80.484375 189.414062 80.078125 189.914062 79.597656 190.035156 C 79.136719 190.148438 78.4375 190.140625 77.644531 190.0625 C 77.046875 190 76.394531 189.898438 75.75 189.78125 L 75.425781 189.71875 C 75.210938 189.675781 75 189.632812 74.792969 189.585938 C 74.269531 189.476562 73.769531 189.359375 73.328125 189.25 C 72.449219 189.027344 71.796875 188.835938 71.65625 188.769531 C 71.390625 188.652344 70.933594 187.902344 70.5625 187.085938 C 70.554688 186.792969 70.535156 186.496094 70.511719 186.203125 C 70.484375 185.910156 70.449219 185.617188 70.410156 185.324219 C 70.324219 184.742188 70.207031 184.164062 70.054688 183.59375 C 70.160156 182.816406 70.347656 182.070312 70.539062 181.769531 C 70.5625 181.730469 70.589844 181.699219 70.625 181.667969 Z M 66.003906 199.867188 C 65.902344 199.597656 66.109375 198.746094 66.421875 197.90625 C 66.722656 197.585938 67.011719 197.25 67.289062 196.902344 C 67.378906 196.785156 67.476562 196.671875 67.566406 196.554688 C 67.742188 196.3125 67.914062 196.070312 68.074219 195.824219 C 68.238281 195.578125 68.390625 195.328125 68.535156 195.074219 C 69.253906 194.53125 70.011719 194.09375 70.296875 194.117188 C 70.800781 194.152344 76.484375 195.507812 77.886719 196.792969 C 78.253906 197.132812 78.371094 197.765625 78.347656 198.523438 C 76.914062 201.503906 74.972656 204.109375 72.519531 206.328125 C 72.429688 206.359375 72.339844 206.386719 72.253906 206.410156 C 72.089844 206.457031 71.921875 206.492188 71.753906 206.515625 C 71.351562 206.574219 71 206.539062 70.730469 206.378906 C 69.097656 205.402344 66.183594 200.335938 66.007812 199.867188 Z M 63.855469 211.480469 C 60.722656 212.574219 57.5 213.042969 54.1875 212.886719 C 53.519531 212.550781 53.023438 212.144531 52.902344 211.664062 C 52.441406 209.824219 53.957031 204.179688 54.164062 203.71875 C 54.285156 203.457031 55.03125 203 55.851562 202.625 C 56.144531 202.621094 56.4375 202.601562 56.734375 202.574219 C 57.617188 202.5 58.484375 202.347656 59.339844 202.121094 C 60.230469 202.242188 61.078125 202.46875 61.269531 202.6875 C 61.308594 202.734375 61.394531 202.855469 61.507812 203.03125 C 61.652344 203.253906 61.84375 203.5625 62.066406 203.929688 C 62.15625 204.078125 62.246094 204.234375 62.34375 204.398438 C 63.347656 206.125 64.6875 208.699219 64.738281 209.945312 C 64.761719 210.4375 64.398438 210.96875 63.855469 211.480469 Z M 60.261719 195.664062 C 60.425781 195.5625 60.605469 195.5 60.796875 195.476562 C 60.984375 195.449219 61.171875 195.457031 61.359375 195.503906 C 61.542969 195.554688 61.714844 195.632812 61.867188 195.75 C 62.019531 195.863281 62.148438 196.003906 62.246094 196.171875 C 62.292969 196.253906 62.335938 196.34375 62.367188 196.4375 C 62.53125 196.917969 62.464844 197.359375 62.164062 197.769531 C 62.105469 197.84375 62.042969 197.914062 61.972656 197.980469 C 61.820312 198.117188 61.648438 198.21875 61.453125 198.28125 C 61.257812 198.34375 61.058594 198.367188 60.855469 198.347656 C 60.652344 198.328125 60.460938 198.265625 60.285156 198.164062 C 60.105469 198.0625 59.957031 197.929688 59.835938 197.765625 C 59.714844 197.601562 59.632812 197.417969 59.585938 197.21875 C 59.542969 197.019531 59.539062 196.820312 59.582031 196.621094 C 59.621094 196.417969 59.703125 196.234375 59.820312 196.070312 C 59.9375 195.902344 60.085938 195.765625 60.261719 195.664062 Z M 82.953125 150.628906 C 62.195312 135.136719 32.558594 139.464844 16.121094 160.105469 C 16.417969 159.679688 16.71875 159.253906 17.03125 158.835938 C 32.835938 137.664062 62.921875 133.289062 84.097656 149.09375 C 105.273438 164.898438 109.644531 194.984375 93.839844 216.160156 C 93.527344 216.582031 93.207031 216.992188 92.882812 217.394531 C 107.996094 195.765625 103.710938 166.125 82.953125 150.628906 Z M 82.953125 150.628906 " fill-opacity="1" fill-rule="nonzero"/></g></g></g><g clip-path="url(#558a0c7f68)"><g clip-path="url(#47617f99bc)"><g clip-path="url(#4dad554bb6)"><path fill="#d9d9d9" d="M 84.097656 149.09375 C 62.925781 133.292969 32.835938 137.660156 17.03125 158.835938 C 16.71875 159.253906 16.417969 159.679688 16.121094 160.105469 C 32.558594 139.464844 62.195312 135.136719 82.953125 150.628906 C 103.710938 166.121094 107.996094 195.765625 92.882812 217.394531 C 93.207031 216.992188 93.527344 216.582031 93.839844 216.160156 C 109.644531 194.984375 105.273438 164.898438 84.097656 149.09375 Z M 84.097656 149.09375 " fill-opacity="1" fill-rule="nonzero"/></g></g></g><g clip-path="url(#09a688a55c)"><g clip-path="url(#d1dd1fcb59)"><g clip-path="url(#d997b82c2e)"><path fill="#d9d9d9" d="M 38.332031 210.417969 C 26.113281 201.300781 23.273438 184.21875 31.617188 171.671875 C 31.277344 172.082031 30.945312 172.5 30.625 172.929688 C 28.832031 175.324219 27.433594 177.925781 26.425781 180.742188 C 25.421875 183.558594 24.851562 186.460938 24.722656 189.449219 C 24.71875 189.570312 24.714844 189.695312 24.710938 189.820312 C 24.695312 190.238281 24.691406 190.652344 24.699219 191.066406 C 24.699219 191.1875 24.699219 191.308594 24.703125 191.425781 C 24.707031 191.667969 24.714844 191.910156 24.726562 192.152344 C 24.734375 192.28125 24.742188 192.414062 24.753906 192.546875 C 24.777344 192.9375 24.808594 193.328125 24.847656 193.714844 C 24.863281 193.859375 24.875 194.007812 24.894531 194.152344 C 24.921875 194.375 24.949219 194.605469 24.984375 194.828125 C 25.015625 195.050781 25.054688 195.296875 25.09375 195.53125 C 25.136719 195.804688 25.1875 196.078125 25.242188 196.347656 C 25.273438 196.523438 25.3125 196.695312 25.347656 196.867188 C 25.402344 197.132812 25.464844 197.394531 25.527344 197.65625 C 25.585938 197.898438 25.648438 198.144531 25.714844 198.386719 C 25.765625 198.574219 25.820312 198.761719 25.875 198.949219 C 25.9375 199.164062 26.007812 199.382812 26.074219 199.597656 C 26.152344 199.835938 26.230469 200.070312 26.3125 200.304688 C 26.394531 200.539062 26.476562 200.769531 26.566406 201.007812 C 26.625 201.167969 26.6875 201.328125 26.75 201.484375 C 26.878906 201.808594 27.011719 202.125 27.152344 202.445312 C 27.210938 202.574219 27.269531 202.699219 27.328125 202.828125 C 27.441406 203.074219 27.558594 203.320312 27.679688 203.566406 C 27.742188 203.691406 27.804688 203.816406 27.867188 203.941406 C 28.03125 204.265625 28.207031 204.585938 28.386719 204.90625 C 28.453125 205.023438 28.519531 205.132812 28.585938 205.246094 C 28.746094 205.523438 28.910156 205.796875 29.082031 206.070312 C 29.128906 206.144531 29.175781 206.21875 29.222656 206.292969 C 29.433594 206.621094 29.652344 206.941406 29.878906 207.257812 C 29.945312 207.355469 30.015625 207.453125 30.082031 207.546875 C 30.316406 207.871094 30.550781 208.1875 30.800781 208.5 C 30.835938 208.550781 30.878906 208.597656 30.917969 208.644531 C 31.144531 208.929688 31.378906 209.207031 31.621094 209.488281 C 31.6875 209.5625 31.75 209.636719 31.816406 209.710938 C 32.089844 210.015625 32.367188 210.316406 32.652344 210.609375 C 32.710938 210.671875 32.769531 210.730469 32.832031 210.792969 C 33.09375 211.058594 33.363281 211.320312 33.640625 211.578125 C 33.691406 211.625 33.738281 211.671875 33.789062 211.71875 C 34.097656 212.003906 34.417969 212.28125 34.742188 212.550781 C 34.816406 212.613281 34.890625 212.675781 34.964844 212.738281 C 35.300781 213.011719 35.644531 213.285156 35.992188 213.546875 C 36.339844 213.804688 36.703125 214.058594 37.0625 214.300781 C 37.140625 214.355469 37.222656 214.410156 37.300781 214.464844 C 37.65625 214.695312 38.011719 214.925781 38.371094 215.140625 C 38.433594 215.175781 38.492188 215.207031 38.550781 215.242188 C 38.875 215.433594 39.203125 215.617188 39.535156 215.792969 C 39.609375 215.835938 39.683594 215.875 39.757812 215.914062 C 40.121094 216.105469 40.488281 216.285156 40.855469 216.457031 C 40.949219 216.5 41.039062 216.542969 41.128906 216.582031 C 41.464844 216.734375 41.800781 216.878906 42.136719 217.019531 C 42.195312 217.042969 42.25 217.066406 42.308594 217.089844 C 42.679688 217.238281 43.050781 217.375 43.425781 217.507812 C 43.539062 217.546875 43.648438 217.585938 43.761719 217.621094 C 44.128906 217.746094 44.5 217.867188 44.871094 217.976562 C 44.957031 218 45.042969 218.019531 45.125 218.042969 C 45.4375 218.132812 45.746094 218.210938 46.054688 218.289062 C 46.183594 218.320312 46.3125 218.351562 46.441406 218.378906 C 46.796875 218.460938 47.15625 218.535156 47.511719 218.605469 C 47.652344 218.628906 47.789062 218.652344 47.929688 218.679688 C 48.195312 218.722656 48.464844 218.765625 48.734375 218.800781 C 48.875 218.824219 49.015625 218.84375 49.15625 218.863281 C 49.496094 218.90625 49.84375 218.941406 50.1875 218.972656 C 50.359375 218.988281 50.527344 219.003906 50.699219 219.015625 C 50.945312 219.035156 51.191406 219.046875 51.441406 219.058594 C 51.6875 219.070312 51.9375 219.078125 52.1875 219.085938 C 52.414062 219.089844 52.640625 219.09375 52.867188 219.09375 C 53.0625 219.09375 53.257812 219.089844 53.453125 219.085938 C 53.699219 219.078125 53.949219 219.070312 54.195312 219.058594 C 54.46875 219.042969 54.742188 219.027344 55.011719 219.003906 C 55.1875 218.992188 55.363281 218.976562 55.539062 218.960938 C 55.816406 218.933594 56.09375 218.902344 56.375 218.871094 C 56.605469 218.839844 56.839844 218.808594 57.070312 218.777344 C 57.300781 218.742188 57.519531 218.703125 57.742188 218.667969 C 57.890625 218.640625 58.03125 218.617188 58.175781 218.589844 C 58.558594 218.515625 58.941406 218.4375 59.324219 218.347656 C 59.453125 218.320312 59.582031 218.289062 59.707031 218.257812 C 59.941406 218.203125 60.175781 218.140625 60.410156 218.078125 C 60.527344 218.046875 60.640625 218.011719 60.757812 217.976562 C 61.15625 217.863281 61.550781 217.742188 61.945312 217.613281 C 62.066406 217.574219 62.183594 217.535156 62.304688 217.496094 C 62.539062 217.414062 62.773438 217.332031 63.003906 217.246094 C 65.6875 216.246094 68.171875 214.886719 70.464844 213.167969 C 72.753906 211.445312 74.753906 209.4375 76.460938 207.140625 C 76.78125 206.710938 77.089844 206.273438 77.382812 205.828125 C 67.734375 217.398438 50.550781 219.535156 38.332031 210.417969 Z M 38.332031 210.417969 " fill-opacity="1" fill-rule="nonzero"/></g></g></g><g clip-path="url(#5c49cfb860)"><g clip-path="url(#125b5d2032)"><g clip-path="url(#59ad892112)"><path fill="#ff4e1f" d="M 29.707031 221.976562 C 11.511719 208.398438 7.757812 182.550781 21.335938 164.359375 C 34.914062 146.167969 60.761719 142.414062 78.953125 155.992188 C 97.144531 169.566406 100.898438 195.414062 87.320312 213.605469 C 73.742188 231.796875 47.898438 235.554688 29.707031 221.976562 Z M 78.136719 157.082031 C 60.546875 143.953125 35.554688 147.582031 22.425781 165.175781 C 9.296875 182.765625 12.929688 207.757812 30.519531 220.886719 C 48.109375 234.015625 73.101562 230.382812 86.230469 212.792969 C 99.359375 195.203125 95.730469 170.210938 78.136719 157.082031 Z M 78.136719 157.082031 " fill-opacity="1" fill-rule="nonzero"/></g></g></g><path stroke-linecap="butt" transform="matrix(1.247545, 0, 0, 1.247545, 80.44913, 157.32141)" fill="none" stroke-linejoin="miter" d="M 17.894596 45.000015 L 22.641421 31.89615 L 25.152603 34.457431 L 28.515459 34.457431 L 24.692324 45.000015 L 36.70968 45.000015 C 37.088549 45.000015 37.548828 44.8779 37.886992 44.66185 L 40.95552 43.111931 C 41.619324 42.773767 42.123439 42.191373 42.380193 41.515044 L 51.034693 17.66194 L 34.605547 17.66194 L 30.701002 28.492589 L 23.903274 28.492589 L 27.807819 17.66194 L 11.381803 17.66194 L 1.46545 45.000015 Z M 62.244212 41.515044 L 70.898712 17.66194 L 59.260226 17.66194 C 58.840651 17.66194 58.380372 17.787186 58.042208 17.990711 L 55.014385 19.550024 C 54.350582 19.888188 53.846466 20.473713 53.589712 21.140648 L 44.935212 45.000015 L 56.573698 45.000015 C 56.993273 45.000015 57.456683 44.8779 57.794847 44.66185 L 60.860243 43.111931 C 61.486474 42.773767 61.987458 42.191373 62.244212 41.515044 Z M 82.571641 24.256143 L 78.162981 36.345515 C 77.784112 37.485254 76.481553 38.405812 75.301109 38.405812 L 66.781249 38.405812 L 64.382788 45.000015 L 83.454625 45.000015 C 84.253069 45.000015 85.013938 44.837195 85.762283 44.373785 L 91.689551 41.349093 C 92.948274 40.63206 93.994078 39.451616 94.416783 38.283697 L 101.890839 17.66194 L 79.587655 17.66194 L 77.198587 24.256143 Z M 133.596869 45.000015 L 140.610646 25.640111 C 141.074057 24.418963 140.908106 23.24165 140.109662 22.53401 L 135.535051 18.28817 C 135.115477 17.827891 134.439149 17.66194 133.690804 17.66194 L 115.242065 17.66194 C 114.453015 17.66194 113.735982 17.827891 112.978243 18.28817 L 107.019664 21.231451 C 105.798515 21.939091 104.837252 23.119535 104.283038 24.378258 L 94.203865 45.000015 L 110.044355 45.000015 L 113.695277 37.525958 L 116.04364 39.874321 L 119.703955 39.874321 L 117.847182 45.000015 Z M 119.36579 26.307046 C 119.951315 25.179832 121.128628 24.256143 122.309072 24.256143 L 123.232761 24.256143 C 124.40068 24.256143 125.036304 25.179832 124.61673 26.307046 L 121.889498 33.875037 L 115.58336 33.875037 Z M 180.557864 17.66194 L 156.698498 17.66194 C 150.401754 17.66194 145.57352 20.176254 143.594633 25.599406 L 138.979317 38.283697 C 138.559743 39.451616 138.681858 40.63206 139.439596 41.349093 L 143.184452 44.373785 C 143.594633 44.837195 144.230256 45.000015 145.069405 45.000015 L 170.641511 45.000015 L 173.043103 38.405812 L 159.813992 38.405812 C 158.63668 38.405812 158.051155 37.485254 158.42063 36.345515 L 162.080945 26.307046 C 162.541224 25.139127 163.762373 24.256143 164.889587 24.256143 L 178.159403 24.256143 Z M 191.776776 45.000015 L 196.348256 32.397134 L 201.395671 45.000015 L 219.493721 45.000015 L 219.57513 44.74326 L 214.161371 31.229215 L 229.31614 17.909301 L 229.406943 17.66194 L 211.2995 17.66194 L 197.149831 30.133312 L 201.680605 17.66194 L 183.203686 17.66194 L 173.287333 45.000015 Z M 191.776776 45.000015 " stroke="#1e1411" stroke-width="11.025" stroke-opacity="1" stroke-miterlimit="4"/><g fill="#ff4e1f" fill-opacity="1"><g transform="translate(80.44913, 213.460919)"><g><path d="M 22.320312 0 L 28.242188 -16.347656 L 31.386719 -13.152344 L 35.578125 -13.152344 L 30.808594 0 L 45.792969 0 C 46.265625 0 46.84375 -0.15625 47.261719 -0.417969 L 51.085938 -2.359375 C 51.925781 -2.777344 52.554688 -3.511719 52.867188 -4.347656 L 63.664062 -34.109375 L 43.175781 -34.109375 L 38.300781 -20.59375 L 29.8125 -20.59375 L 34.6875 -34.109375 L 14.199219 -34.109375 L 1.832031 0 Z M 22.320312 0 "/></g></g></g><g fill="#ff4e1f" fill-opacity="1"><g transform="translate(133.579633, 213.460919)"><g><path d="M 24.523438 -4.347656 L 35.316406 -34.109375 L 20.800781 -34.109375 C 20.277344 -34.109375 19.703125 -33.953125 19.28125 -33.691406 L 15.507812 -31.753906 C 14.671875 -31.332031 14.042969 -30.601562 13.726562 -29.761719 L 2.933594 0 L 17.449219 0 C 17.972656 0 18.546875 -0.15625 18.96875 -0.417969 L 22.792969 -2.359375 C 23.578125 -2.777344 24.207031 -3.511719 24.523438 -4.347656 Z M 24.523438 -4.347656 "/></g></g></g><g fill="#ff4e1f" fill-opacity="1"><g transform="translate(159.463729, 213.460919)"><g><path d="M 23.996094 -25.882812 L 18.496094 -10.792969 C 18.023438 -9.378906 16.398438 -8.226562 14.933594 -8.226562 L 4.296875 -8.226562 L 1.308594 0 L 25.097656 0 C 26.09375 0 27.035156 -0.210938 27.980469 -0.785156 L 35.367188 -4.558594 C 36.941406 -5.449219 38.25 -6.917969 38.773438 -8.382812 L 48.101562 -34.109375 L 20.277344 -34.109375 L 17.289062 -25.882812 Z M 23.996094 -25.882812 "/></g></g></g><g fill="#ff4e1f" fill-opacity="1"><g transform="translate(197.241929, 213.460919)"><g><path d="M 49.882812 0 L 58.632812 -24.15625 C 59.207031 -25.675781 59 -27.140625 58.003906 -28.03125 L 52.292969 -33.324219 C 51.769531 -33.902344 50.929688 -34.109375 49.988281 -34.109375 L 26.984375 -34.109375 C 25.988281 -34.109375 25.097656 -33.902344 24.15625 -33.324219 L 16.714844 -29.65625 C 15.195312 -28.765625 13.988281 -27.296875 13.308594 -25.726562 L 0.734375 0 L 20.488281 0 L 25.046875 -9.328125 L 27.980469 -6.390625 L 32.539062 -6.390625 L 30.234375 0 Z M 32.121094 -23.316406 C 32.851562 -24.730469 34.320312 -25.882812 35.785156 -25.882812 L 36.941406 -25.882812 C 38.40625 -25.882812 39.191406 -24.730469 38.667969 -23.316406 L 35.261719 -13.886719 L 27.402344 -13.886719 Z M 32.121094 -23.316406 "/></g></g></g><g fill="#ff4e1f" fill-opacity="1"><g transform="translate(248.957715, 213.460919)"><g><path d="M 56.746094 -34.109375 L 26.984375 -34.109375 C 19.125 -34.109375 13.097656 -30.964844 10.636719 -24.207031 L 4.871094 -8.382812 C 4.347656 -6.917969 4.507812 -5.449219 5.449219 -4.558594 L 10.113281 -0.785156 C 10.636719 -0.210938 11.421875 0 12.46875 0 L 44.378906 0 L 47.367188 -8.226562 L 30.863281 -8.226562 C 29.394531 -8.226562 28.660156 -9.378906 29.132812 -10.792969 L 33.691406 -23.316406 C 34.265625 -24.785156 35.785156 -25.882812 37.203125 -25.882812 L 53.757812 -25.882812 Z M 56.746094 -34.109375 "/></g></g></g><g fill="#ff4e1f" fill-opacity="1"><g transform="translate(294.805038, 213.460919)"><g><path d="M 24.886719 0 L 30.601562 -15.71875 L 36.886719 0 L 59.46875 0 L 59.574219 -0.3125 L 52.816406 -17.1875 L 71.730469 -33.796875 L 71.835938 -34.109375 L 49.253906 -34.109375 L 31.59375 -18.546875 L 37.253906 -34.109375 L 14.199219 -34.109375 L 1.832031 0 Z M 24.886719 0 "/></g></g></g><path stroke-linecap="butt" transform="matrix(0.838926, 0, 0, 0.838926, 98.352514, 220.156274)" fill="none" stroke-linejoin="miter" d="M 0.194428 18.001035 L 1.730991 18.001035 C 1.842741 18.001035 1.921897 17.926535 1.921897 17.810129 L 1.921897 14.159629 L 11.523086 14.159629 L 11.523086 17.810129 C 11.523086 17.926535 11.597586 18.001035 11.713992 18.001035 L 13.245898 18.001035 C 13.362305 18.001035 13.436805 17.926535 13.436805 17.810129 L 13.436805 8.590753 C 13.436805 8.474347 13.362305 8.399847 13.245898 8.399847 L 11.713992 8.399847 C 11.597586 8.399847 11.523086 8.474347 11.523086 8.590753 L 11.523086 12.241253 L 1.921897 12.241253 L 1.921897 8.590753 C 1.921897 8.474347 1.842741 8.399847 1.730991 8.399847 L 0.194428 8.399847 C 0.0733658 8.399847 -0.00113424 8.474347 -0.00113424 8.590753 L -0.00113424 17.810129 C -0.00113424 17.926535 0.0733658 18.001035 0.194428 18.001035 Z M 23.606056 18.001035 L 33.128088 18.001035 C 34.264213 18.001035 35.088369 17.176879 35.088369 16.040754 L 35.088369 10.360128 C 35.088369 9.224003 34.264213 8.399847 33.128088 8.399847 L 23.606056 8.399847 C 22.474587 8.399847 21.65043 9.224003 21.65043 10.360128 L 21.65043 16.040754 C 21.65043 17.176879 22.474587 18.001035 23.606056 18.001035 Z M 23.955274 16.078004 C 23.741087 16.078004 23.568806 15.910379 23.568806 15.691535 L 23.568806 10.704691 C 23.568806 10.490503 23.741087 10.322878 23.955274 10.322878 L 32.788182 10.322878 C 32.997713 10.322878 33.169994 10.490503 33.169994 10.704691 L 33.169994 15.691535 C 33.169994 15.910379 32.997713 16.078004 32.788182 16.078004 Z M 43.488245 18.001035 L 54.774996 18.001035 C 55.911121 18.001035 56.735278 17.176879 56.735278 16.040754 L 56.735278 14.196879 C 56.735278 13.833691 56.642153 13.484472 56.488497 13.200441 C 56.642153 12.911754 56.735278 12.567191 56.735278 12.199347 L 56.735278 10.360128 C 56.735278 9.224003 55.911121 8.399847 54.774996 8.399847 L 43.488245 8.399847 C 43.371839 8.399847 43.297339 8.474347 43.297339 8.590753 L 43.297339 17.810129 C 43.297339 17.926535 43.371839 18.001035 43.488245 18.001035 Z M 45.22037 16.078004 L 45.22037 14.159629 L 54.43509 14.159629 C 54.644621 14.159629 54.816903 14.336566 54.816903 14.546097 L 54.816903 15.691535 C 54.816903 15.910379 54.644621 16.078004 54.43509 16.078004 Z M 45.22037 12.241253 L 45.22037 10.322878 L 54.43509 10.322878 C 54.644621 10.322878 54.816903 10.490503 54.816903 10.704691 L 54.816903 11.854785 C 54.816903 12.064316 54.644621 12.241253 54.43509 12.241253 Z M 65.13981 18.001035 L 76.426561 18.001035 C 77.55803 18.001035 78.386843 17.176879 78.386843 16.040754 L 78.386843 14.196879 C 78.386843 13.833691 78.289061 13.484472 78.135405 13.200441 C 78.289061 12.911754 78.386843 12.567191 78.386843 12.199347 L 78.386843 10.360128 C 78.386843 9.224003 77.55803 8.399847 76.426561 8.399847 L 65.13981 8.399847 C 65.018747 8.399847 64.944247 8.474347 64.944247 8.590753 L 64.944247 17.810129 C 64.944247 17.926535 65.018747 18.001035 65.13981 18.001035 Z M 66.867279 16.078004 L 66.867279 14.159629 L 76.081999 14.159629 C 76.296186 14.159629 76.468467 14.336566 76.468467 14.546097 L 76.468467 15.691535 C 76.468467 15.910379 76.296186 16.078004 76.081999 16.078004 Z M 66.867279 12.241253 L 66.867279 10.322878 L 76.081999 10.322878 C 76.296186 10.322878 76.468467 10.490503 76.468467 10.704691 L 76.468467 11.854785 C 76.468467 12.064316 76.296186 12.241253 76.081999 12.241253 Z M 86.786718 18.001035 L 88.323281 18.001035 C 88.435031 18.001035 88.514187 17.926535 88.514187 17.810129 L 88.514187 8.590753 C 88.514187 8.474347 88.435031 8.399847 88.323281 8.399847 L 86.786718 8.399847 C 86.670312 8.399847 86.595812 8.474347 86.595812 8.590753 L 86.595812 17.810129 C 86.595812 17.926535 86.670312 18.001035 86.786718 18.001035 Z M 98.688095 18.001035 L 109.974846 18.001035 C 110.095908 18.001035 110.170408 17.926535 110.170408 17.810129 L 110.170408 16.26891 C 110.170408 16.15716 110.095908 16.078004 109.974846 16.078004 L 99.037313 16.078004 C 98.81847 16.078004 98.650845 15.910379 98.650845 15.691535 L 98.650845 14.159629 L 109.057564 14.159629 C 109.206564 14.159629 109.285721 14.080472 109.285721 13.968722 L 109.285721 12.43216 C 109.285721 12.32041 109.206564 12.241253 109.057564 12.241253 L 98.650845 12.241253 L 98.650845 10.704691 C 98.650845 10.490503 98.81847 10.322878 99.037313 10.322878 L 109.974846 10.322878 C 110.095908 10.322878 110.170408 10.243722 110.170408 10.131972 L 110.170408 8.590753 C 110.170408 8.474347 110.095908 8.399847 109.974846 8.399847 L 98.688095 8.399847 C 97.556626 8.399847 96.727813 9.224003 96.727813 10.360128 L 96.727813 16.040754 C 96.727813 17.176879 97.556626 18.001035 98.688095 18.001035 Z M 118.570284 18.001035 L 129.857035 18.001035 C 130.99316 18.001035 131.817317 17.176879 131.817317 16.040754 L 131.817317 14.196879 C 131.817317 13.06541 130.99316 12.241253 129.857035 12.241253 L 120.684222 12.241253 C 120.470034 12.241253 120.302409 12.064316 120.302409 11.854785 L 120.302409 10.704691 C 120.302409 10.490503 120.470034 10.322878 120.684222 10.322878 L 131.62641 10.322878 C 131.742817 10.322878 131.817317 10.243722 131.817317 10.131972 L 131.817317 8.590753 C 131.817317 8.474347 131.742817 8.399847 131.62641 8.399847 L 120.339659 8.399847 C 119.203534 8.399847 118.379378 9.224003 118.379378 10.360128 L 118.379378 12.199347 C 118.379378 13.335472 119.203534 14.159629 120.339659 14.159629 L 129.517129 14.159629 C 129.72666 14.159629 129.898942 14.336566 129.898942 14.546097 L 129.898942 15.691535 C 129.898942 15.910379 129.72666 16.078004 129.517129 16.078004 L 118.570284 16.078004 C 118.453878 16.078004 118.379378 16.15716 118.379378 16.26891 L 118.379378 17.810129 C 118.379378 17.926535 118.453878 18.001035 118.570284 18.001035 Z M 118.570284 18.001035 " stroke="#000000" stroke-width="4.992754" stroke-opacity="1" stroke-miterlimit="4"/><g fill="#ff4e1f" fill-opacity="1"><g transform="translate(98.352514, 235.256944)"><g><path d="M 0.160156 0 L 1.449219 0 C 1.546875 0 1.609375 -0.0625 1.609375 -0.160156 L 1.609375 -3.222656 L 9.664062 -3.222656 L 9.664062 -0.160156 C 9.664062 -0.0625 9.730469 0 9.824219 0 L 11.113281 0 C 11.210938 0 11.273438 -0.0625 11.273438 -0.160156 L 11.273438 -7.894531 C 11.273438 -7.988281 11.210938 -8.054688 11.113281 -8.054688 L 9.824219 -8.054688 C 9.730469 -8.054688 9.664062 -7.988281 9.664062 -7.894531 L 9.664062 -4.832031 L 1.609375 -4.832031 L 1.609375 -7.894531 C 1.609375 -7.988281 1.546875 -8.054688 1.449219 -8.054688 L 0.160156 -8.054688 C 0.0625 -8.054688 0 -7.988281 0 -7.894531 L 0 -0.160156 C 0 -0.0625 0.0625 0 0.160156 0 Z M 0.160156 0 "/></g></g></g><g fill="#ff4e1f" fill-opacity="1"><g transform="translate(116.514016, 235.256944)"><g><path d="M 1.644531 0 L 9.632812 0 C 10.582031 0 11.273438 -0.691406 11.273438 -1.644531 L 11.273438 -6.410156 C 11.273438 -7.359375 10.582031 -8.054688 9.632812 -8.054688 L 1.644531 -8.054688 C 0.691406 -8.054688 0 -7.359375 0 -6.410156 L 0 -1.644531 C 0 -0.691406 0.691406 0 1.644531 0 Z M 1.933594 -1.609375 C 1.753906 -1.609375 1.609375 -1.753906 1.609375 -1.933594 L 1.609375 -6.121094 C 1.609375 -6.296875 1.753906 -6.441406 1.933594 -6.441406 L 9.34375 -6.441406 C 9.519531 -6.441406 9.664062 -6.296875 9.664062 -6.121094 L 9.664062 -1.933594 C 9.664062 -1.753906 9.519531 -1.609375 9.34375 -1.609375 Z M 1.933594 -1.609375 "/></g></g></g><g fill="#ff4e1f" fill-opacity="1"><g transform="translate(134.675517, 235.256944)"><g><path d="M 0.160156 0 L 9.632812 0 C 10.582031 0 11.273438 -0.691406 11.273438 -1.644531 L 11.273438 -3.1875 C 11.273438 -3.496094 11.195312 -3.785156 11.066406 -4.027344 C 11.195312 -4.269531 11.273438 -4.558594 11.273438 -4.863281 L 11.273438 -6.410156 C 11.273438 -7.359375 10.582031 -8.054688 9.632812 -8.054688 L 0.160156 -8.054688 C 0.0625 -8.054688 0 -7.988281 0 -7.894531 L 0 -0.160156 C 0 -0.0625 0.0625 0 0.160156 0 Z M 1.609375 -1.609375 L 1.609375 -3.222656 L 9.34375 -3.222656 C 9.519531 -3.222656 9.664062 -3.078125 9.664062 -2.898438 L 9.664062 -1.933594 C 9.664062 -1.753906 9.519531 -1.609375 9.34375 -1.609375 Z M 1.609375 -4.832031 L 1.609375 -6.441406 L 9.34375 -6.441406 C 9.519531 -6.441406 9.664062 -6.296875 9.664062 -6.121094 L 9.664062 -5.15625 C 9.664062 -4.976562 9.519531 -4.832031 9.34375 -4.832031 Z M 1.609375 -4.832031 "/></g></g></g><g fill="#ff4e1f" fill-opacity="1"><g transform="translate(152.837017, 235.256944)"><g><path d="M 0.160156 0 L 9.632812 0 C 10.582031 0 11.273438 -0.691406 11.273438 -1.644531 L 11.273438 -3.1875 C 11.273438 -3.496094 11.195312 -3.785156 11.066406 -4.027344 C 11.195312 -4.269531 11.273438 -4.558594 11.273438 -4.863281 L 11.273438 -6.410156 C 11.273438 -7.359375 10.582031 -8.054688 9.632812 -8.054688 L 0.160156 -8.054688 C 0.0625 -8.054688 0 -7.988281 0 -7.894531 L 0 -0.160156 C 0 -0.0625 0.0625 0 0.160156 0 Z M 1.609375 -1.609375 L 1.609375 -3.222656 L 9.34375 -3.222656 C 9.519531 -3.222656 9.664062 -3.078125 9.664062 -2.898438 L 9.664062 -1.933594 C 9.664062 -1.753906 9.519531 -1.609375 9.34375 -1.609375 Z M 1.609375 -4.832031 L 1.609375 -6.441406 L 9.34375 -6.441406 C 9.519531 -6.441406 9.664062 -6.296875 9.664062 -6.121094 L 9.664062 -5.15625 C 9.664062 -4.976562 9.519531 -4.832031 9.34375 -4.832031 Z M 1.609375 -4.832031 "/></g></g></g><g fill="#ff4e1f" fill-opacity="1"><g transform="translate(170.99852, 235.256944)"><g><path d="M 0.160156 0 L 1.449219 0 C 1.546875 0 1.609375 -0.0625 1.609375 -0.160156 L 1.609375 -7.894531 C 1.609375 -7.988281 1.546875 -8.054688 1.449219 -8.054688 L 0.160156 -8.054688 C 0.0625 -8.054688 0 -7.988281 0 -7.894531 L 0 -0.160156 C 0 -0.0625 0.0625 0 0.160156 0 Z M 0.160156 0 "/></g></g></g><g fill="#ff4e1f" fill-opacity="1"><g transform="translate(179.501915, 235.256944)"><g><path d="M 1.644531 0 L 11.113281 0 C 11.210938 0 11.273438 -0.0625 11.273438 -0.160156 L 11.273438 -1.449219 C 11.273438 -1.546875 11.210938 -1.609375 11.113281 -1.609375 L 1.933594 -1.609375 C 1.753906 -1.609375 1.609375 -1.753906 1.609375 -1.933594 L 1.609375 -3.222656 L 10.339844 -3.222656 C 10.46875 -3.222656 10.535156 -3.285156 10.535156 -3.382812 L 10.535156 -4.671875 C 10.535156 -4.769531 10.46875 -4.832031 10.339844 -4.832031 L 1.609375 -4.832031 L 1.609375 -6.121094 C 1.609375 -6.296875 1.753906 -6.441406 1.933594 -6.441406 L 11.113281 -6.441406 C 11.210938 -6.441406 11.273438 -6.507812 11.273438 -6.605469 L 11.273438 -7.894531 C 11.273438 -7.988281 11.210938 -8.054688 11.113281 -8.054688 L 1.644531 -8.054688 C 0.691406 -8.054688 0 -7.359375 0 -6.410156 L 0 -1.644531 C 0 -0.691406 0.691406 0 1.644531 0 Z M 1.644531 0 "/></g></g></g><g fill="#ff4e1f" fill-opacity="1"><g transform="translate(197.663418, 235.256944)"><g><path d="M 0.160156 0 L 9.632812 0 C 10.582031 0 11.273438 -0.691406 11.273438 -1.644531 L 11.273438 -3.1875 C 11.273438 -4.140625 10.582031 -4.832031 9.632812 -4.832031 L 1.933594 -4.832031 C 1.753906 -4.832031 1.609375 -4.976562 1.609375 -5.15625 L 1.609375 -6.121094 C 1.609375 -6.296875 1.753906 -6.441406 1.933594 -6.441406 L 11.113281 -6.441406 C 11.210938 -6.441406 11.273438 -6.507812 11.273438 -6.605469 L 11.273438 -7.894531 C 11.273438 -7.988281 11.210938 -8.054688 11.113281 -8.054688 L 1.644531 -8.054688 C 0.691406 -8.054688 0 -7.359375 0 -6.410156 L 0 -4.863281 C 0 -3.914062 0.691406 -3.222656 1.644531 -3.222656 L 9.34375 -3.222656 C 9.519531 -3.222656 9.664062 -3.078125 9.664062 -2.898438 L 9.664062 -1.933594 C 9.664062 -1.753906 9.519531 -1.609375 9.34375 -1.609375 L 0.160156 -1.609375 C 0.0625 -1.609375 0 -1.546875 0 -1.449219 L 0 -0.160156 C 0 -0.0625 0.0625 0 0.160156 0 Z M 0.160156 0 "/></g></g></g></svg>