<svg xmlns="http://www.w3.org/2000/svg" xmlns:xlink="http://www.w3.org/1999/xlink" zoomAndPan="magnify" preserveAspectRatio="xMidYMid meet" version="1.0" viewBox="-18.72 112.33 394.61 149.09"><defs><g/><clipPath id="b75ced438e"><path d="M 55 133 L 174 133 L 174 144 L 55 144 Z M 55 133 " clip-rule="nonzero"/></clipPath><clipPath id="fa13cdc754"><path d="M 173.339844 139.964844 L 172.933594 147.539062 L 55.800781 141.226562 L 56.207031 133.652344 Z M 173.339844 139.964844 " clip-rule="nonzero"/></clipPath><clipPath id="0d4b696b9c"><path d="M 173.136719 143.753906 L 55.824219 141.230469 L 56.234375 133.65625 Z M 173.136719 143.753906 " clip-rule="nonzero"/></clipPath><clipPath id="2cc9dc20a4"><path d="M 76 150 L 216 150 L 216 161 L 76 161 Z M 76 150 " clip-rule="nonzero"/></clipPath><clipPath id="3f9aafd740"><path d="M 215.390625 155.558594 L 215.066406 164.542969 L 76.128906 159.519531 L 76.453125 150.535156 Z M 215.390625 155.558594 " clip-rule="nonzero"/></clipPath><clipPath id="b352e8c0d9"><path d="M 215.230469 160.050781 L 76.160156 159.519531 L 76.484375 150.535156 Z M 215.230469 160.050781 " clip-rule="nonzero"/></clipPath><clipPath id="fddae42346"><path d="M 2 133 L 110 133 L 110 241 L 2 241 Z M 2 133 " clip-rule="nonzero"/></clipPath><clipPath id="8324d87478"><path d="M 44.988281 112.328125 L 130.359375 176.042969 L 66.644531 261.414062 L -18.722656 197.699219 Z M 44.988281 112.328125 " clip-rule="nonzero"/></clipPath><clipPath id="f7698f5e69"><path d="M 44.988281 112.328125 L 130.359375 176.042969 L 66.644531 261.414062 L -18.722656 197.699219 Z M 44.988281 112.328125 " clip-rule="nonzero"/></clipPath><clipPath id="38e2930327"><path d="M 16 139 L 104 139 L 104 217 L 16 217 Z M 16 139 " clip-rule="nonzero"/></clipPath><clipPath id="a478b8cd59"><path d="M 44.988281 112.328125 L 130.359375 176.042969 L 66.644531 261.414062 L -18.722656 197.699219 Z M 44.988281 112.328125 " clip-rule="nonzero"/></clipPath><clipPath id="5c6b39b49c"><path d="M 44.988281 112.328125 L 130.359375 176.042969 L 66.644531 261.414062 L -18.722656 197.699219 Z M 44.988281 112.328125 " clip-rule="nonzero"/></clipPath><clipPath id="24533bbe9d"><path d="M 25 171 L 78 171 L 78 219 L 25 219 Z M 25 171 " clip-rule="nonzero"/></clipPath><clipPath id="4cc0e1e36c"><path d="M 44.988281 112.328125 L 130.359375 176.042969 L 66.644531 261.414062 L -18.722656 197.699219 Z M 44.988281 112.328125 " clip-rule="nonzero"/></clipPath><clipPath id="22a4400a1d"><path d="M 44.988281 112.328125 L 130.359375 176.042969 L 66.644531 261.414062 L -18.722656 197.699219 Z M 44.988281 112.328125 " clip-rule="nonzero"/></clipPath><clipPath id="1537845f26"><path d="M 13 147 L 96 147 L 96 230 L 13 230 Z M 13 147 " clip-rule="nonzero"/></clipPath><clipPath id="e58f17ac72"><path d="M 44.988281 112.328125 L 130.359375 176.042969 L 66.644531 261.414062 L -18.722656 197.699219 Z M 44.988281 112.328125 " clip-rule="nonzero"/></clipPath><clipPath id="20a8144b8c"><path d="M 44.988281 112.328125 L 130.359375 176.042969 L 66.644531 261.414062 L -18.722656 197.699219 Z M 44.988281 112.328125 " clip-rule="nonzero"/></clipPath></defs><g clip-path="url(#b75ced438e)"><g clip-path="url(#fa13cdc754)"><g clip-path="url(#0d4b696b9c)"><path fill="#0a5ec2" d="M 173.339844 139.964844 L 172.933594 147.539062 L 55.828125 141.230469 L 56.238281 133.65625 Z M 173.339844 139.964844 " fill-opacity="1" fill-rule="nonzero"/></g></g></g><g clip-path="url(#2cc9dc20a4)"><g clip-path="url(#3f9aafd740)"><g clip-path="url(#b352e8c0d9)"><path fill="#0a5ec2" d="M 215.390625 155.558594 L 215.066406 164.542969 L 76.164062 159.519531 L 76.488281 150.535156 Z M 215.390625 155.558594 " fill-opacity="1" fill-rule="nonzero"/></g></g></g><g clip-path="url(#fddae42346)"><g clip-path="url(#8324d87478)"><g clip-path="url(#f7698f5e69)"><path fill="#0a5ec2" d="M 87.722656 144.21875 C 64.160156 126.636719 30.683594 131.496094 13.097656 155.0625 C -4.488281 178.625 0.375 212.101562 23.9375 229.6875 C 47.5 247.269531 80.976562 242.410156 98.5625 218.847656 C 116.148438 195.28125 111.285156 161.804688 87.722656 144.21875 Z M 63.398438 216.679688 C 63.164062 216.765625 62.933594 216.847656 62.699219 216.929688 C 62.578125 216.96875 62.460938 217.007812 62.339844 217.046875 C 61.945312 217.175781 61.550781 217.296875 61.152344 217.410156 C 61.035156 217.445312 60.917969 217.476562 60.804688 217.511719 C 60.570312 217.574219 60.335938 217.632812 60.101562 217.691406 C 59.976562 217.722656 59.847656 217.75 59.71875 217.78125 C 59.339844 217.867188 58.957031 217.949219 58.574219 218.023438 C 58.429688 218.050781 58.285156 218.078125 58.140625 218.101562 C 57.917969 218.136719 57.691406 218.179688 57.464844 218.207031 C 57.242188 218.238281 57.003906 218.269531 56.769531 218.300781 C 56.492188 218.335938 56.214844 218.367188 55.9375 218.394531 C 55.761719 218.410156 55.585938 218.425781 55.410156 218.4375 C 55.140625 218.457031 54.867188 218.476562 54.597656 218.488281 C 54.347656 218.5 54.101562 218.511719 53.851562 218.515625 C 53.65625 218.523438 53.460938 218.523438 53.265625 218.523438 C 53.039062 218.523438 52.816406 218.523438 52.589844 218.515625 C 52.339844 218.511719 52.089844 218.503906 51.839844 218.492188 C 51.59375 218.480469 51.34375 218.464844 51.101562 218.449219 C 50.929688 218.4375 50.757812 218.421875 50.589844 218.40625 C 50.246094 218.375 49.902344 218.339844 49.558594 218.296875 C 49.417969 218.277344 49.277344 218.253906 49.136719 218.234375 C 48.867188 218.195312 48.601562 218.15625 48.332031 218.109375 C 48.195312 218.085938 48.054688 218.0625 47.917969 218.039062 C 47.558594 217.96875 47.203125 217.894531 46.84375 217.8125 C 46.714844 217.785156 46.589844 217.753906 46.460938 217.722656 C 46.152344 217.644531 45.839844 217.5625 45.53125 217.476562 C 45.449219 217.453125 45.363281 217.433594 45.277344 217.40625 C 44.90625 217.300781 44.535156 217.179688 44.167969 217.054688 C 44.054688 217.019531 43.945312 216.980469 43.832031 216.941406 C 43.457031 216.808594 43.085938 216.671875 42.714844 216.523438 C 42.660156 216.5 42.601562 216.476562 42.542969 216.453125 C 42.207031 216.3125 41.871094 216.167969 41.539062 216.015625 C 41.449219 215.976562 41.355469 215.933594 41.265625 215.890625 C 40.898438 215.71875 40.53125 215.539062 40.167969 215.347656 C 40.09375 215.308594 40.019531 215.269531 39.945312 215.230469 C 39.613281 215.050781 39.285156 214.867188 38.960938 214.675781 C 38.902344 214.640625 38.84375 214.609375 38.785156 214.574219 C 38.421875 214.359375 38.066406 214.132812 37.714844 213.898438 C 37.632812 213.847656 37.554688 213.792969 37.472656 213.738281 C 37.113281 213.492188 36.753906 213.246094 36.40625 212.980469 C 36.054688 212.71875 35.710938 212.449219 35.378906 212.171875 C 35.304688 212.113281 35.230469 212.050781 35.15625 211.988281 C 34.832031 211.71875 34.511719 211.441406 34.203125 211.15625 C 34.152344 211.109375 34.105469 211.0625 34.054688 211.015625 C 33.777344 210.757812 33.507812 210.496094 33.246094 210.230469 C 33.1875 210.167969 33.125 210.109375 33.066406 210.046875 C 32.78125 209.753906 32.503906 209.457031 32.234375 209.152344 C 32.167969 209.078125 32.101562 209 32.035156 208.925781 C 31.796875 208.648438 31.5625 208.367188 31.332031 208.085938 C 31.296875 208.035156 31.253906 207.988281 31.214844 207.941406 C 30.96875 207.628906 30.734375 207.308594 30.5 206.988281 C 30.429688 206.890625 30.363281 206.796875 30.292969 206.699219 C 30.070312 206.382812 29.851562 206.0625 29.640625 205.738281 C 29.59375 205.660156 29.546875 205.585938 29.5 205.511719 C 29.328125 205.242188 29.164062 204.964844 29.003906 204.691406 C 28.9375 204.574219 28.871094 204.464844 28.804688 204.351562 C 28.625 204.03125 28.453125 203.710938 28.285156 203.382812 C 28.222656 203.261719 28.160156 203.132812 28.097656 203.007812 C 27.976562 202.765625 27.859375 202.519531 27.75 202.273438 C 27.6875 202.144531 27.628906 202.015625 27.570312 201.886719 C 27.429688 201.570312 27.300781 201.25 27.171875 200.929688 C 27.105469 200.773438 27.046875 200.613281 26.984375 200.453125 C 26.898438 200.21875 26.8125 199.984375 26.730469 199.75 C 26.648438 199.515625 26.570312 199.28125 26.496094 199.046875 C 26.425781 198.828125 26.359375 198.613281 26.296875 198.394531 C 26.242188 198.207031 26.1875 198.023438 26.136719 197.835938 C 26.070312 197.59375 26.007812 197.347656 25.949219 197.101562 C 25.882812 196.839844 25.824219 196.578125 25.769531 196.316406 C 25.730469 196.144531 25.695312 195.972656 25.660156 195.796875 C 25.609375 195.527344 25.558594 195.253906 25.515625 194.984375 C 25.472656 194.75 25.433594 194.515625 25.402344 194.28125 C 25.371094 194.042969 25.34375 193.828125 25.316406 193.601562 C 25.300781 193.453125 25.285156 193.3125 25.269531 193.164062 C 25.230469 192.777344 25.195312 192.386719 25.171875 191.996094 C 25.164062 191.867188 25.15625 191.734375 25.148438 191.605469 C 25.136719 191.363281 25.128906 191.121094 25.121094 190.878906 C 25.121094 190.761719 25.121094 190.640625 25.121094 190.519531 C 25.113281 190.105469 25.113281 189.6875 25.128906 189.273438 C 25.128906 189.148438 25.132812 189.023438 25.140625 188.898438 C 25.269531 185.914062 25.835938 183.015625 26.84375 180.203125 C 27.847656 177.386719 29.246094 174.785156 31.039062 172.394531 C 31.359375 171.964844 31.691406 171.546875 32.03125 171.136719 C 23.691406 183.671875 26.53125 200.742188 38.738281 209.855469 C 50.945312 218.964844 68.121094 216.832031 77.765625 205.269531 C 77.46875 205.710938 77.164062 206.148438 76.839844 206.578125 C 75.132812 208.875 73.136719 210.882812 70.847656 212.601562 C 68.5625 214.320312 66.078125 215.679688 63.398438 216.679688 Z M 45.992188 185.484375 C 45.796875 185.597656 45.589844 185.664062 45.363281 185.683594 C 45.140625 185.699219 44.921875 185.664062 44.714844 185.582031 C 44.507812 185.496094 44.328125 185.371094 44.175781 185.203125 C 44.027344 185.039062 43.921875 184.84375 43.863281 184.628906 C 43.800781 184.414062 43.792969 184.195312 43.832031 183.972656 C 43.875 183.75 43.964844 183.550781 44.097656 183.371094 C 44.234375 183.191406 44.402344 183.050781 44.601562 182.949219 C 44.800781 182.847656 45.015625 182.796875 45.238281 182.792969 C 45.464844 182.792969 45.679688 182.839844 45.878906 182.9375 C 46.082031 183.035156 46.253906 183.171875 46.390625 183.347656 C 46.53125 183.523438 46.625 183.722656 46.667969 183.941406 C 46.714844 184.164062 46.710938 184.382812 46.65625 184.601562 C 46.554688 184.988281 46.332031 185.28125 45.988281 185.484375 Z M 40.65625 192.785156 C 40.277344 193.109375 35.304688 196.171875 33.40625 196.253906 C 32.910156 196.273438 32.382812 195.910156 31.871094 195.367188 C 30.777344 192.238281 30.308594 189.019531 30.464844 185.707031 C 30.800781 185.042969 31.207031 184.542969 31.6875 184.421875 C 32.148438 184.308594 32.847656 184.316406 33.640625 184.398438 C 33.839844 184.417969 34.042969 184.441406 34.253906 184.46875 C 34.667969 184.527344 35.101562 184.597656 35.53125 184.679688 C 37.472656 185.039062 39.367188 185.570312 39.625 185.6875 C 39.757812 185.746094 39.9375 185.960938 40.132812 186.265625 C 40.351562 186.621094 40.546875 186.988281 40.71875 187.371094 C 40.75 188.554688 40.921875 189.714844 41.222656 190.859375 C 41.097656 191.746094 40.871094 192.59375 40.652344 192.78125 Z M 51.007812 178.800781 C 50.84375 178.898438 50.667969 178.960938 50.476562 178.988281 C 50.285156 179.015625 50.097656 179.003906 49.914062 178.957031 C 49.726562 178.910156 49.558594 178.828125 49.40625 178.710938 C 49.25 178.597656 49.125 178.457031 49.027344 178.292969 C 48.976562 178.207031 48.9375 178.117188 48.90625 178.027344 C 48.792969 177.703125 48.796875 177.378906 48.914062 177.054688 C 49.03125 176.734375 49.238281 176.484375 49.535156 176.308594 C 49.617188 176.261719 49.707031 176.21875 49.800781 176.1875 C 49.96875 176.128906 50.144531 176.101562 50.320312 176.109375 C 50.5 176.117188 50.671875 176.15625 50.835938 176.226562 C 51 176.296875 51.148438 176.394531 51.277344 176.515625 C 51.40625 176.640625 51.507812 176.785156 51.582031 176.949219 C 51.65625 177.109375 51.699219 177.28125 51.710938 177.460938 C 51.722656 177.640625 51.703125 177.8125 51.648438 177.984375 C 51.597656 178.15625 51.515625 178.3125 51.402344 178.453125 C 51.292969 178.59375 51.160156 178.707031 51.007812 178.800781 Z M 55.414062 171.839844 C 54.234375 171.871094 53.070312 172.042969 51.925781 172.347656 C 51.039062 172.222656 50.191406 171.996094 50.003906 171.777344 C 49.675781 171.398438 46.613281 166.425781 46.535156 164.527344 C 46.519531 164.21875 46.65625 163.894531 46.890625 163.574219 C 46.941406 163.507812 46.988281 163.441406 47.046875 163.378906 C 47.164062 163.242188 47.285156 163.113281 47.417969 162.992188 C 48.191406 162.722656 48.976562 162.488281 49.773438 162.292969 C 50.167969 162.195312 50.566406 162.109375 50.96875 162.03125 C 52.984375 161.640625 55.019531 161.492188 57.074219 161.589844 C 57.15625 161.632812 57.238281 161.675781 57.316406 161.71875 C 57.78125 161.984375 58.136719 162.289062 58.296875 162.636719 C 58.324219 162.691406 58.34375 162.75 58.359375 162.8125 C 58.433594 163.101562 58.457031 163.480469 58.445312 163.917969 C 58.414062 164.621094 58.339844 165.320312 58.21875 166.011719 C 58.199219 166.117188 58.183594 166.226562 58.164062 166.335938 C 58.03125 167.085938 57.867188 167.847656 57.710938 168.523438 C 57.640625 168.8125 57.574219 169.082031 57.511719 169.335938 C 57.402344 169.75 57.304688 170.101562 57.230469 170.351562 C 57.199219 170.453125 57.175781 170.539062 57.152344 170.605469 C 57.128906 170.671875 57.113281 170.722656 57.097656 170.75 C 57.078125 170.789062 57.054688 170.824219 57.027344 170.859375 C 56.792969 171.125 56.132812 171.515625 55.414062 171.839844 Z M 42.328125 169.9375 C 42.519531 170.1875 42.710938 170.453125 42.898438 170.71875 L 43.085938 170.988281 C 43.210938 171.171875 43.332031 171.351562 43.449219 171.535156 C 43.988281 172.347656 44.464844 173.140625 44.800781 173.71875 C 44.871094 173.847656 44.941406 173.96875 45 174.074219 C 45.027344 174.125 45.054688 174.175781 45.078125 174.222656 C 45.179688 174.40625 45.246094 174.539062 45.265625 174.597656 C 45.304688 174.695312 45.300781 174.878906 45.261719 175.113281 C 45.25 175.191406 45.234375 175.273438 45.214844 175.363281 C 45.117188 175.769531 44.996094 176.167969 44.847656 176.554688 C 44.648438 176.769531 44.453125 176.984375 44.261719 177.210938 C 44.070312 177.4375 43.886719 177.667969 43.707031 177.90625 C 43.617188 178.027344 43.539062 178.148438 43.453125 178.273438 C 43.199219 178.636719 42.957031 179.007812 42.738281 179.386719 C 42.199219 179.789062 41.640625 180.140625 41.273438 180.277344 C 41.175781 180.320312 41.078125 180.339844 40.976562 180.34375 C 40.835938 180.324219 40.699219 180.300781 40.5625 180.269531 C 40.511719 180.257812 40.457031 180.246094 40.398438 180.234375 C 40.28125 180.210938 40.148438 180.179688 40.003906 180.144531 C 39.351562 179.988281 38.457031 179.757812 37.523438 179.472656 C 37.316406 179.410156 37.105469 179.34375 36.898438 179.277344 L 36.585938 179.175781 C 36.277344 179.070312 35.96875 178.960938 35.675781 178.851562 C 35.574219 178.8125 35.480469 178.773438 35.382812 178.738281 C 34.523438 178.398438 33.789062 178.03125 33.394531 177.667969 C 33.300781 177.578125 33.226562 177.476562 33.164062 177.359375 C 33.132812 177.296875 33.105469 177.234375 33.082031 177.171875 C 33.03125 177.027344 32.996094 176.878906 32.972656 176.726562 C 32.9375 176.464844 32.925781 176.203125 32.9375 175.9375 C 33.464844 174.839844 34.070312 173.78125 34.75 172.769531 C 34.980469 172.425781 35.21875 172.089844 35.46875 171.753906 C 35.71875 171.421875 35.972656 171.097656 36.234375 170.777344 C 36.761719 170.144531 37.308594 169.542969 37.882812 168.96875 C 38.167969 168.683594 38.460938 168.40625 38.757812 168.136719 C 38.929688 168.078125 39.101562 168.03125 39.28125 167.992188 C 39.613281 167.921875 39.921875 167.902344 40.1875 167.953125 C 40.316406 167.976562 40.433594 168.019531 40.546875 168.085938 C 41.003906 168.359375 41.566406 168.957031 42.136719 169.6875 C 42.203125 169.769531 42.265625 169.851562 42.328125 169.9375 Z M 50.453125 182.941406 C 51.128906 182.03125 51.984375 181.335938 53.015625 180.863281 C 53.210938 180.773438 53.410156 180.691406 53.613281 180.621094 C 53.875 180.53125 54.136719 180.457031 54.402344 180.398438 C 54.671875 180.339844 54.941406 180.296875 55.214844 180.273438 C 55.484375 180.246094 55.757812 180.238281 56.03125 180.246094 C 56.304688 180.253906 56.578125 180.28125 56.847656 180.320312 C 57.117188 180.363281 57.386719 180.421875 57.648438 180.496094 C 57.914062 180.570312 58.171875 180.660156 58.421875 180.765625 C 58.675781 180.871094 58.921875 180.992188 59.15625 181.128906 C 59.394531 181.265625 59.625 181.414062 59.84375 181.578125 C 60.0625 181.742188 60.269531 181.917969 60.46875 182.105469 C 60.667969 182.296875 60.851562 182.496094 61.023438 182.707031 C 61.199219 182.917969 61.359375 183.140625 61.503906 183.371094 C 61.648438 183.605469 61.78125 183.84375 61.898438 184.089844 C 62.015625 184.339844 62.117188 184.59375 62.203125 184.851562 C 62.289062 185.113281 62.355469 185.375 62.410156 185.644531 C 62.464844 185.914062 62.5 186.183594 62.523438 186.457031 C 62.542969 186.730469 62.546875 187.003906 62.53125 187.273438 C 62.523438 187.492188 62.503906 187.707031 62.472656 187.917969 C 62.308594 189.042969 61.886719 190.058594 61.207031 190.96875 C 60.945312 191.324219 60.652344 191.652344 60.324219 191.953125 C 59.996094 192.25 59.644531 192.515625 59.265625 192.746094 C 58.886719 192.972656 58.488281 193.164062 58.070312 193.3125 C 57.652344 193.464844 57.226562 193.570312 56.789062 193.636719 C 56.351562 193.703125 55.910156 193.726562 55.46875 193.703125 C 55.023438 193.683594 54.589844 193.617188 54.160156 193.507812 C 53.730469 193.402344 53.3125 193.253906 52.914062 193.0625 C 52.515625 192.871094 52.136719 192.644531 51.78125 192.378906 C 51.425781 192.113281 51.101562 191.816406 50.804688 191.488281 C 50.507812 191.160156 50.246094 190.804688 50.019531 190.421875 C 49.796875 190.039062 49.609375 189.640625 49.460938 189.222656 C 49.316406 188.804688 49.210938 188.375 49.148438 187.9375 C 49.089844 187.5 49.070312 187.058594 49.097656 186.617188 C 49.121094 186.171875 49.191406 185.738281 49.300781 185.308594 C 49.414062 184.878906 49.566406 184.464844 49.761719 184.066406 C 49.953125 183.667969 50.183594 183.292969 50.453125 182.941406 Z M 65.964844 182.636719 C 65.714844 182.785156 65.445312 182.851562 65.152344 182.835938 C 64.863281 182.820312 64.601562 182.726562 64.367188 182.554688 C 64.210938 182.4375 64.082031 182.296875 63.984375 182.128906 C 63.882812 181.960938 63.820312 181.78125 63.796875 181.585938 C 63.78125 181.492188 63.777344 181.402344 63.785156 181.308594 C 63.804688 180.988281 63.914062 180.707031 64.117188 180.464844 C 64.320312 180.21875 64.578125 180.0625 64.886719 179.984375 C 65.195312 179.910156 65.496094 179.9375 65.789062 180.058594 C 66.082031 180.183594 66.3125 180.382812 66.472656 180.65625 C 66.625 180.910156 66.691406 181.183594 66.671875 181.480469 C 66.644531 181.992188 66.40625 182.378906 65.964844 182.636719 Z M 73.09375 173.257812 C 72.527344 173.703125 71.878906 174.15625 71.25 174.574219 C 71.070312 174.691406 70.890625 174.808594 70.714844 174.921875 C 69.742188 175.539062 68.863281 176.042969 68.433594 176.269531 C 68.316406 176.332031 68.230469 176.371094 68.1875 176.386719 C 67.917969 176.492188 67.066406 176.285156 66.226562 175.972656 C 66.015625 175.769531 65.796875 175.574219 65.570312 175.382812 C 65.347656 175.195312 65.113281 175.007812 64.875 174.832031 C 64.636719 174.652344 64.390625 174.480469 64.144531 174.320312 C 63.898438 174.160156 63.648438 174.003906 63.398438 173.859375 C 62.855469 173.144531 62.417969 172.386719 62.4375 172.097656 C 62.441406 172.050781 62.457031 171.960938 62.484375 171.828125 C 62.574219 171.355469 62.808594 170.367188 63.128906 169.257812 C 63.183594 169.058594 63.246094 168.851562 63.308594 168.648438 C 63.527344 167.921875 63.777344 167.175781 64.042969 166.507812 C 64.117188 166.3125 64.195312 166.128906 64.273438 165.953125 C 64.3125 165.867188 64.351562 165.78125 64.390625 165.695312 C 64.46875 165.53125 64.550781 165.371094 64.628906 165.226562 C 64.667969 165.15625 64.710938 165.082031 64.75 165.019531 C 64.824219 164.894531 64.902344 164.777344 64.992188 164.664062 C 65.03125 164.613281 65.070312 164.5625 65.113281 164.519531 C 65.367188 164.246094 65.785156 164.109375 66.300781 164.070312 C 66.480469 164.054688 66.660156 164.054688 66.839844 164.058594 C 67.5625 164.40625 68.273438 164.792969 68.972656 165.214844 C 69.671875 165.632812 70.355469 166.09375 71.023438 166.59375 C 71.691406 167.089844 72.324219 167.613281 72.929688 168.164062 C 73.53125 168.714844 74.101562 169.289062 74.640625 169.882812 C 74.757812 170.207031 74.828125 170.539062 74.851562 170.882812 C 74.855469 170.960938 74.855469 171.035156 74.851562 171.105469 C 74.84375 171.304688 74.792969 171.496094 74.691406 171.671875 C 74.660156 171.722656 74.625 171.773438 74.589844 171.828125 C 74.503906 171.941406 74.414062 172.054688 74.316406 172.160156 C 74.265625 172.214844 74.210938 172.273438 74.152344 172.332031 C 74.035156 172.449219 73.90625 172.570312 73.769531 172.695312 C 73.699219 172.757812 73.628906 172.820312 73.554688 172.882812 C 73.414062 173.003906 73.257812 173.132812 73.09375 173.261719 Z M 58.617188 174.929688 C 58.714844 174.9375 58.808594 174.949219 58.90625 174.976562 C 59.164062 175.042969 59.386719 175.171875 59.574219 175.359375 C 59.761719 175.550781 59.886719 175.777344 59.949219 176.035156 C 60.015625 176.296875 60.003906 176.554688 59.925781 176.808594 C 59.847656 177.0625 59.707031 177.28125 59.507812 177.457031 C 59.367188 177.582031 59.207031 177.675781 59.03125 177.738281 C 58.753906 177.835938 58.472656 177.851562 58.1875 177.777344 C 58.011719 177.730469 57.851562 177.65625 57.707031 177.554688 C 57.5625 177.449219 57.4375 177.324219 57.339844 177.175781 C 57.242188 177.023438 57.171875 176.863281 57.132812 176.6875 C 57.09375 176.511719 57.085938 176.335938 57.113281 176.160156 C 57.140625 175.984375 57.199219 175.816406 57.289062 175.660156 C 57.375 175.503906 57.488281 175.371094 57.628906 175.257812 C 57.765625 175.144531 57.921875 175.058594 58.09375 175.003906 C 58.261719 174.945312 58.4375 174.921875 58.617188 174.929688 Z M 43.472656 197.515625 C 43.742188 197.414062 44.59375 197.617188 45.433594 197.933594 C 46.292969 198.75 47.234375 199.457031 48.261719 200.046875 C 48.804688 200.761719 49.242188 201.519531 49.21875 201.804688 C 49.183594 202.308594 47.832031 207.988281 46.542969 209.386719 C 46.207031 209.753906 45.570312 209.875 44.816406 209.847656 C 41.835938 208.417969 39.234375 206.476562 37.015625 204.023438 C 36.777344 203.3125 36.710938 202.667969 36.964844 202.238281 C 37.945312 200.605469 43.003906 197.695312 43.472656 197.515625 Z M 45.265625 191.65625 C 45.394531 191.480469 45.554688 191.34375 45.746094 191.242188 C 45.9375 191.140625 46.140625 191.082031 46.355469 191.070312 C 46.574219 191.0625 46.78125 191.097656 46.980469 191.179688 C 47.179688 191.261719 47.351562 191.382812 47.5 191.542969 C 47.632812 191.691406 47.730469 191.859375 47.796875 192.046875 C 47.835938 192.164062 47.859375 192.285156 47.871094 192.40625 C 47.878906 192.53125 47.871094 192.65625 47.851562 192.777344 C 47.828125 192.898438 47.789062 193.015625 47.738281 193.128906 C 47.683594 193.242188 47.617188 193.347656 47.539062 193.441406 C 47.457031 193.539062 47.367188 193.621094 47.265625 193.695312 C 47.164062 193.765625 47.054688 193.824219 46.9375 193.867188 C 46.824219 193.910156 46.703125 193.941406 46.578125 193.953125 C 46.453125 193.964844 46.332031 193.960938 46.207031 193.945312 C 46.085938 193.925781 45.964844 193.890625 45.851562 193.839844 C 45.738281 193.792969 45.632812 193.726562 45.535156 193.652344 C 45.4375 193.574219 45.351562 193.484375 45.273438 193.386719 C 45.199219 193.289062 45.140625 193.179688 45.089844 193.066406 C 45.042969 192.949219 45.011719 192.832031 44.996094 192.707031 C 44.980469 192.585938 44.976562 192.460938 44.992188 192.335938 C 45.007812 192.214844 45.039062 192.09375 45.085938 191.980469 C 45.132812 191.863281 45.191406 191.753906 45.265625 191.65625 Z M 53.1875 196.085938 C 53.285156 196.089844 53.378906 196.105469 53.476562 196.128906 C 53.660156 196.175781 53.832031 196.257812 53.984375 196.375 C 54.136719 196.488281 54.261719 196.628906 54.359375 196.792969 C 54.457031 196.957031 54.519531 197.136719 54.546875 197.328125 C 54.574219 197.515625 54.5625 197.703125 54.515625 197.890625 C 54.46875 198.074219 54.386719 198.246094 54.273438 198.398438 C 54.15625 198.550781 54.015625 198.675781 53.851562 198.773438 C 53.6875 198.871094 53.511719 198.933594 53.320312 198.960938 C 53.128906 198.988281 52.941406 198.976562 52.757812 198.929688 C 52.570312 198.882812 52.402344 198.800781 52.25 198.6875 C 52.09375 198.570312 51.96875 198.429688 51.871094 198.265625 C 51.773438 198.101562 51.710938 197.921875 51.683594 197.734375 C 51.65625 197.542969 51.667969 197.355469 51.714844 197.171875 C 51.765625 196.980469 51.847656 196.808594 51.964844 196.652344 C 52.273438 196.25 52.679688 196.0625 53.1875 196.085938 Z M 66.769531 188.269531 C 66.953125 188.316406 67.125 188.398438 67.277344 188.511719 C 67.429688 188.628906 67.554688 188.769531 67.652344 188.933594 C 67.75 189.097656 67.8125 189.277344 67.839844 189.464844 C 67.867188 189.65625 67.855469 189.84375 67.808594 190.027344 C 67.761719 190.214844 67.679688 190.382812 67.566406 190.539062 C 67.449219 190.691406 67.308594 190.816406 67.144531 190.914062 C 66.980469 191.011719 66.804688 191.074219 66.613281 191.101562 C 66.421875 191.128906 66.234375 191.117188 66.050781 191.070312 C 65.863281 191.023438 65.695312 190.941406 65.542969 190.824219 C 65.386719 190.710938 65.261719 190.570312 65.164062 190.40625 C 65.066406 190.242188 65.003906 190.0625 64.976562 189.875 C 64.949219 189.683594 64.960938 189.496094 65.007812 189.308594 C 65.054688 189.121094 65.140625 188.949219 65.257812 188.792969 C 65.433594 188.5625 65.660156 188.398438 65.933594 188.304688 C 66.207031 188.207031 66.488281 188.195312 66.769531 188.269531 Z M 71.007812 181.128906 C 71.019531 181.117188 71.035156 181.105469 71.054688 181.089844 C 71.117188 181.042969 71.21875 180.972656 71.347656 180.886719 C 71.65625 180.6875 72.136719 180.390625 72.714844 180.050781 C 73.371094 179.667969 74.152344 179.238281 74.933594 178.847656 C 75.03125 178.800781 75.128906 178.753906 75.226562 178.703125 C 75.859375 178.390625 76.503906 178.121094 77.171875 177.890625 C 77.253906 177.867188 77.335938 177.839844 77.414062 177.816406 C 77.6875 177.730469 77.96875 177.679688 78.253906 177.660156 C 78.75 177.636719 79.28125 178 79.792969 178.542969 C 80.886719 181.671875 81.351562 184.890625 81.195312 188.203125 C 80.859375 188.867188 80.457031 189.367188 79.972656 189.488281 C 79.511719 189.601562 78.816406 189.59375 78.019531 189.515625 C 77.425781 189.453125 76.773438 189.351562 76.128906 189.234375 L 75.804688 189.171875 C 75.59375 189.128906 75.378906 189.085938 75.171875 189.039062 C 74.648438 188.929688 74.148438 188.8125 73.710938 188.703125 C 72.828125 188.480469 72.179688 188.289062 72.035156 188.226562 C 71.773438 188.105469 71.316406 187.359375 70.945312 186.539062 C 70.9375 186.246094 70.917969 185.953125 70.894531 185.660156 C 70.867188 185.363281 70.832031 185.070312 70.792969 184.78125 C 70.707031 184.199219 70.589844 183.621094 70.4375 183.050781 C 70.542969 182.273438 70.730469 181.527344 70.921875 181.226562 C 70.945312 181.191406 70.972656 181.15625 71.007812 181.128906 Z M 66.390625 199.3125 C 66.289062 199.042969 66.496094 198.191406 66.808594 197.351562 C 67.109375 197.035156 67.394531 196.699219 67.671875 196.347656 C 67.765625 196.234375 67.859375 196.121094 67.949219 196 C 68.128906 195.761719 68.296875 195.519531 68.460938 195.273438 C 68.621094 195.027344 68.773438 194.777344 68.921875 194.523438 C 69.636719 193.980469 70.394531 193.542969 70.683594 193.566406 C 71.183594 193.601562 76.863281 194.953125 78.261719 196.242188 C 78.632812 196.578125 78.75 197.214844 78.722656 197.96875 C 77.292969 200.949219 75.351562 203.550781 72.902344 205.769531 C 72.8125 205.800781 72.722656 205.828125 72.636719 205.851562 C 72.472656 205.898438 72.304688 205.933594 72.132812 205.957031 C 71.734375 206.015625 71.382812 205.980469 71.113281 205.820312 C 69.484375 204.84375 66.570312 199.78125 66.394531 199.3125 Z M 64.242188 210.917969 C 61.113281 212.011719 57.894531 212.480469 54.582031 212.320312 C 53.914062 211.984375 53.417969 211.582031 53.296875 211.101562 C 52.835938 209.261719 54.355469 203.621094 54.558594 203.164062 C 54.679688 202.898438 55.425781 202.441406 56.242188 202.070312 C 56.539062 202.0625 56.832031 202.046875 57.125 202.019531 C 58.007812 201.941406 58.875 201.789062 59.730469 201.5625 C 60.621094 201.683594 61.46875 201.914062 61.65625 202.132812 C 61.699219 202.179688 61.78125 202.296875 61.898438 202.476562 C 62.042969 202.695312 62.234375 203.003906 62.457031 203.371094 C 62.542969 203.519531 62.636719 203.675781 62.730469 203.839844 C 63.738281 205.566406 65.074219 208.136719 65.125 209.382812 C 65.148438 209.875 64.785156 210.40625 64.242188 210.917969 Z M 60.652344 195.109375 C 60.816406 195.011719 60.996094 194.949219 61.183594 194.921875 C 61.375 194.894531 61.5625 194.90625 61.75 194.953125 C 61.933594 195 62.105469 195.082031 62.257812 195.199219 C 62.410156 195.3125 62.535156 195.453125 62.632812 195.617188 C 62.683594 195.703125 62.726562 195.792969 62.757812 195.886719 C 62.921875 196.363281 62.851562 196.808594 62.550781 197.214844 C 62.496094 197.292969 62.429688 197.363281 62.359375 197.425781 C 62.210938 197.5625 62.035156 197.664062 61.84375 197.726562 C 61.648438 197.792969 61.449219 197.8125 61.246094 197.792969 C 61.042969 197.773438 60.851562 197.710938 60.675781 197.613281 C 60.496094 197.511719 60.347656 197.378906 60.226562 197.214844 C 60.105469 197.046875 60.023438 196.867188 59.976562 196.667969 C 59.933594 196.46875 59.933594 196.265625 59.972656 196.066406 C 60.011719 195.867188 60.09375 195.683594 60.210938 195.515625 C 60.328125 195.351562 60.476562 195.214844 60.652344 195.109375 Z M 83.324219 150.113281 C 62.585938 134.632812 32.96875 138.953125 16.542969 159.578125 C 16.839844 159.15625 17.140625 158.730469 17.453125 158.3125 C 33.246094 137.152344 63.3125 132.785156 84.472656 148.578125 C 105.632812 164.371094 110 194.433594 94.207031 215.59375 C 93.894531 216.015625 93.574219 216.421875 93.25 216.828125 C 108.351562 195.214844 104.070312 165.59375 83.324219 150.113281 Z M 83.324219 150.113281 " fill-opacity="1" fill-rule="nonzero"/></g></g></g><g clip-path="url(#38e2930327)"><g clip-path="url(#a478b8cd59)"><g clip-path="url(#5c6b39b49c)"><path fill="#ffffff" d="M 84.472656 148.578125 C 63.3125 132.785156 33.246094 137.152344 17.453125 158.3125 C 17.140625 158.730469 16.839844 159.15625 16.542969 159.578125 C 32.96875 138.953125 62.585938 134.632812 83.324219 150.113281 C 104.066406 165.59375 108.351562 195.214844 93.25 216.828125 C 93.574219 216.421875 93.894531 216.015625 94.207031 215.59375 C 110 194.433594 105.632812 164.371094 84.472656 148.578125 Z M 84.472656 148.578125 " fill-opacity="1" fill-rule="nonzero"/></g></g></g><g clip-path="url(#24533bbe9d)"><g clip-path="url(#4cc0e1e36c)"><g clip-path="url(#22a4400a1d)"><path fill="#ffffff" d="M 38.738281 209.855469 C 26.53125 200.742188 23.691406 183.675781 32.03125 171.136719 C 31.691406 171.546875 31.359375 171.964844 31.039062 172.394531 C 29.246094 174.785156 27.847656 177.390625 26.84375 180.203125 C 25.835938 183.015625 25.269531 185.914062 25.140625 188.902344 C 25.132812 189.023438 25.128906 189.148438 25.125 189.273438 C 25.113281 189.691406 25.109375 190.105469 25.117188 190.519531 C 25.117188 190.640625 25.117188 190.761719 25.117188 190.878906 C 25.125 191.121094 25.132812 191.363281 25.144531 191.601562 C 25.152344 191.734375 25.160156 191.867188 25.167969 191.996094 C 25.195312 192.386719 25.226562 192.777344 25.265625 193.164062 C 25.277344 193.3125 25.292969 193.457031 25.3125 193.601562 C 25.339844 193.824219 25.367188 194.054688 25.398438 194.277344 C 25.433594 194.5 25.46875 194.746094 25.511719 194.980469 C 25.554688 195.253906 25.605469 195.527344 25.65625 195.796875 C 25.691406 195.972656 25.726562 196.144531 25.765625 196.316406 C 25.820312 196.578125 25.878906 196.839844 25.945312 197.101562 C 26.003906 197.347656 26.066406 197.589844 26.132812 197.832031 C 26.183594 198.019531 26.238281 198.207031 26.289062 198.394531 C 26.355469 198.613281 26.421875 198.828125 26.492188 199.042969 C 26.566406 199.28125 26.644531 199.515625 26.726562 199.75 C 26.808594 199.980469 26.894531 200.214844 26.980469 200.449219 C 27.042969 200.609375 27.101562 200.769531 27.167969 200.929688 C 27.296875 201.25 27.425781 201.570312 27.566406 201.886719 C 27.625 202.015625 27.683594 202.144531 27.742188 202.269531 C 27.859375 202.519531 27.972656 202.761719 28.09375 203.007812 C 28.15625 203.132812 28.21875 203.257812 28.28125 203.382812 C 28.445312 203.707031 28.621094 204.027344 28.800781 204.347656 C 28.867188 204.464844 28.933594 204.574219 29 204.6875 C 29.160156 204.964844 29.324219 205.238281 29.496094 205.511719 C 29.542969 205.585938 29.589844 205.660156 29.636719 205.734375 C 29.847656 206.0625 30.066406 206.382812 30.289062 206.699219 C 30.359375 206.796875 30.425781 206.890625 30.496094 206.988281 C 30.726562 207.308594 30.964844 207.628906 31.210938 207.941406 C 31.25 207.988281 31.289062 208.035156 31.328125 208.082031 C 31.558594 208.367188 31.792969 208.648438 32.03125 208.925781 C 32.097656 209 32.164062 209.074219 32.230469 209.152344 C 32.5 209.457031 32.777344 209.753906 33.0625 210.046875 C 33.121094 210.109375 33.183594 210.167969 33.242188 210.230469 C 33.503906 210.496094 33.773438 210.757812 34.050781 211.015625 C 34.101562 211.0625 34.148438 211.109375 34.199219 211.15625 C 34.507812 211.441406 34.828125 211.714844 35.152344 211.988281 C 35.226562 212.050781 35.300781 212.109375 35.375 212.171875 C 35.710938 212.449219 36.050781 212.722656 36.402344 212.980469 C 36.75 213.242188 37.109375 213.492188 37.46875 213.738281 C 37.550781 213.789062 37.628906 213.84375 37.710938 213.898438 C 38.0625 214.132812 38.417969 214.359375 38.78125 214.574219 C 38.839844 214.609375 38.898438 214.640625 38.957031 214.675781 C 39.28125 214.867188 39.609375 215.050781 39.941406 215.226562 C 40.015625 215.269531 40.089844 215.308594 40.164062 215.347656 C 40.527344 215.539062 40.894531 215.71875 41.261719 215.890625 C 41.351562 215.933594 41.445312 215.972656 41.535156 216.015625 C 41.867188 216.167969 42.203125 216.3125 42.539062 216.449219 C 42.597656 216.472656 42.65625 216.5 42.710938 216.523438 C 43.082031 216.671875 43.457031 216.804688 43.828125 216.9375 C 43.941406 216.976562 44.050781 217.015625 44.164062 217.054688 C 44.53125 217.179688 44.902344 217.296875 45.273438 217.40625 C 45.359375 217.429688 45.441406 217.453125 45.527344 217.476562 C 45.835938 217.5625 46.148438 217.644531 46.457031 217.71875 C 46.585938 217.75 46.714844 217.78125 46.839844 217.8125 C 47.199219 217.894531 47.554688 217.96875 47.914062 218.035156 C 48.050781 218.0625 48.191406 218.085938 48.328125 218.109375 C 48.59375 218.15625 48.863281 218.195312 49.132812 218.234375 C 49.273438 218.253906 49.414062 218.277344 49.554688 218.292969 C 49.894531 218.339844 50.242188 218.375 50.585938 218.40625 C 50.753906 218.421875 50.925781 218.433594 51.097656 218.449219 C 51.34375 218.464844 51.589844 218.480469 51.835938 218.492188 C 52.085938 218.503906 52.332031 218.511719 52.585938 218.515625 C 52.8125 218.519531 53.035156 218.523438 53.261719 218.523438 C 53.457031 218.523438 53.652344 218.519531 53.847656 218.515625 C 54.09375 218.511719 54.34375 218.5 54.59375 218.488281 C 54.863281 218.476562 55.136719 218.457031 55.40625 218.4375 C 55.582031 218.421875 55.757812 218.410156 55.933594 218.390625 C 56.210938 218.367188 56.488281 218.335938 56.765625 218.300781 C 57 218.269531 57.230469 218.238281 57.460938 218.207031 C 57.691406 218.175781 57.914062 218.136719 58.136719 218.101562 C 58.28125 218.074219 58.425781 218.046875 58.570312 218.019531 C 58.953125 217.949219 59.335938 217.867188 59.714844 217.78125 C 59.84375 217.75 59.972656 217.722656 60.097656 217.691406 C 60.332031 217.632812 60.566406 217.574219 60.800781 217.511719 C 60.917969 217.480469 61.03125 217.445312 61.144531 217.410156 C 61.542969 217.296875 61.941406 217.175781 62.335938 217.046875 C 62.453125 217.007812 62.574219 216.96875 62.695312 216.925781 C 62.929688 216.847656 63.160156 216.765625 63.394531 216.679688 C 66.074219 215.679688 68.558594 214.320312 70.847656 212.601562 C 73.132812 210.882812 75.132812 208.875 76.839844 206.582031 C 77.160156 206.148438 77.46875 205.710938 77.761719 205.269531 C 68.121094 216.832031 50.945312 218.96875 38.738281 209.855469 Z M 38.738281 209.855469 " fill-opacity="1" fill-rule="nonzero"/></g></g></g><g clip-path="url(#1537845f26)"><g clip-path="url(#e58f17ac72)"><g clip-path="url(#20a8144b8c)"><path fill="#ff4e1f" d="M 30.117188 221.40625 C 11.941406 207.835938 8.1875 182.011719 21.757812 163.832031 C 35.324219 145.652344 61.148438 141.902344 79.328125 155.46875 C 97.507812 169.035156 101.257812 194.863281 87.691406 213.042969 C 74.125 231.21875 48.296875 234.972656 30.117188 221.40625 Z M 78.515625 156.558594 C 60.9375 143.441406 35.964844 147.066406 22.84375 164.644531 C 9.726562 182.222656 13.355469 207.195312 30.929688 220.316406 C 48.507812 233.433594 73.484375 229.808594 86.601562 212.230469 C 99.722656 194.652344 96.09375 169.675781 78.515625 156.558594 Z M 78.515625 156.558594 " fill-opacity="1" fill-rule="nonzero"/></g></g></g><path stroke-linecap="butt" transform="matrix(0.755499, 0, 0, 0.755499, 80.827638, 156.285693)" fill="none" stroke-linejoin="miter" d="M 29.523777 73.998428 L 37.356973 52.375706 L 41.503654 56.605115 L 47.051522 56.605115 L 40.738431 73.998428 L 60.572186 73.998428 C 61.197807 73.998428 61.95786 73.796781 62.516266 73.440022 L 67.572943 70.885831 C 68.674244 70.327425 69.501512 69.365726 69.925487 68.248914 L 84.206203 28.891631 L 57.10283 28.891631 L 50.655309 46.760623 L 39.435484 46.760623 L 45.883005 28.891631 L 18.779632 28.891631 L 2.420404 73.998428 Z M 102.700818 68.248914 L 116.981535 28.891631 L 97.778572 28.891631 C 97.085735 28.891631 96.320512 29.098448 95.762106 29.434525 L 90.772645 32.009398 C 89.671344 32.567804 88.844076 33.529503 88.420101 34.630804 L 74.139384 73.998428 L 93.342346 73.998428 C 94.040354 73.998428 94.800407 73.796781 95.358813 73.440022 L 100.415489 70.885831 C 101.449575 70.327425 102.276843 69.365726 102.700818 68.248914 Z M 136.241372 39.775378 L 128.966582 59.722881 C 128.340961 61.599746 126.190063 63.119851 124.245983 63.119851 L 110.182424 63.119851 L 106.227048 73.998428 L 137.694261 73.998428 C 139.01272 73.998428 140.263963 73.729566 141.499695 72.969513 L 151.282141 67.974882 C 153.360653 66.790854 155.087575 64.846774 155.780412 62.918205 L 168.117049 28.891631 L 131.313956 28.891631 L 127.374091 39.775378 Z M 220.43142 73.998428 L 232.002833 42.055535 C 232.762886 40.04424 232.494024 38.10016 231.175565 36.931643 L 223.626743 29.925716 C 222.933906 29.165663 221.817094 28.891631 220.581362 28.891631 L 190.143064 28.891631 C 188.840116 28.891631 187.656089 29.165663 186.404846 29.925716 L 176.575866 34.780746 C 174.56457 35.949262 172.972079 37.893342 172.056913 39.977024 L 155.428823 73.998428 L 181.565327 73.998428 L 187.588873 61.666962 L 191.466693 65.539611 L 197.505751 65.539611 L 194.439688 73.998428 Z M 196.947345 43.156836 C 197.909044 41.295483 199.858294 39.775378 201.802375 39.775378 L 203.32248 39.775378 C 205.251049 39.775378 206.300645 41.295483 205.607808 43.156836 L 201.109538 55.643415 L 190.70147 55.643415 Z M 297.910255 28.891631 L 258.542631 28.891631 C 248.150074 28.891631 240.182448 33.038312 236.919909 41.98832 L 229.303871 62.918205 C 228.611034 64.846774 228.812681 66.790854 230.063924 67.974882 L 236.242583 72.969513 C 236.919909 73.729566 237.969505 73.998428 239.355179 73.998428 L 281.551027 73.998428 L 285.511573 63.119851 L 263.682034 63.119851 C 261.737954 63.119851 260.776255 61.599746 261.381195 59.722881 L 267.425423 43.156836 C 268.185475 41.228267 270.196771 39.775378 272.058124 39.775378 L 293.949709 39.775378 Z M 316.41521 73.998428 L 323.964032 53.208145 L 332.288418 73.998428 L 362.147629 73.998428 L 362.28723 73.574453 L 353.352734 51.279576 L 378.356915 29.300094 L 378.512027 28.891631 L 348.632135 28.891631 L 325.282491 49.469927 L 332.758927 28.891631 L 302.274095 28.891631 L 285.914866 73.998428 Z M 316.41521 73.998428 " stroke="#0a5ec2" stroke-width="18.192616" stroke-opacity="1" stroke-miterlimit="4"/><g fill="#ff4e1f" fill-opacity="1"><g transform="translate(80.827638, 212.192594)"><g><path d="M 22.304688 0 L 28.21875 -16.335938 L 31.359375 -13.140625 L 35.550781 -13.140625 L 30.785156 0 L 45.757812 0 C 46.230469 0 46.804688 -0.15625 47.226562 -0.417969 L 51.046875 -2.355469 C 51.886719 -2.773438 52.511719 -3.507812 52.828125 -4.34375 L 63.613281 -34.082031 L 43.140625 -34.082031 L 38.273438 -20.574219 L 29.789062 -20.574219 L 34.660156 -34.082031 L 14.1875 -34.082031 L 1.832031 0 Z M 22.304688 0 "/></g></g></g><g fill="#ff4e1f" fill-opacity="1"><g transform="translate(133.914261, 212.192594)"><g><path d="M 24.503906 -4.34375 L 35.289062 -34.082031 L 20.785156 -34.082031 C 20.261719 -34.082031 19.6875 -33.925781 19.265625 -33.664062 L 15.496094 -31.726562 C 14.660156 -31.308594 14.03125 -30.574219 13.71875 -29.738281 L 2.933594 0 L 17.433594 0 C 17.957031 0 18.535156 -0.15625 18.953125 -0.417969 L 22.773438 -2.355469 C 23.558594 -2.773438 24.1875 -3.507812 24.503906 -4.34375 Z M 24.503906 -4.34375 "/></g></g></g><g fill="#ff4e1f" fill-opacity="1"><g transform="translate(159.776971, 212.192594)"><g><path d="M 23.980469 -25.863281 L 18.480469 -10.785156 C 18.011719 -9.371094 16.386719 -8.21875 14.921875 -8.21875 L 4.292969 -8.21875 L 1.308594 0 L 25.078125 0 C 26.074219 0 27.015625 -0.210938 27.957031 -0.785156 L 35.339844 -4.554688 C 36.910156 -5.445312 38.21875 -6.910156 38.742188 -8.378906 L 48.0625 -34.082031 L 20.261719 -34.082031 L 17.277344 -25.863281 Z M 23.980469 -25.863281 "/></g></g></g><g fill="#ff4e1f" fill-opacity="1"><g transform="translate(197.523961, 212.192594)"><g><path d="M 49.84375 0 L 58.585938 -24.136719 C 59.164062 -25.65625 58.953125 -27.121094 57.957031 -28.011719 L 52.25 -33.296875 C 51.726562 -33.875 50.890625 -34.082031 49.949219 -34.082031 L 26.964844 -34.082031 C 25.96875 -34.082031 25.078125 -33.875 24.136719 -33.296875 L 16.703125 -29.632812 C 15.183594 -28.742188 13.980469 -27.277344 13.296875 -25.707031 L 0.734375 0 L 20.472656 0 L 25.027344 -9.320312 L 27.957031 -6.386719 L 32.511719 -6.386719 L 30.210938 0 Z M 32.09375 -23.296875 C 32.828125 -24.710938 34.292969 -25.863281 35.757812 -25.863281 L 36.910156 -25.863281 C 38.378906 -25.863281 39.164062 -24.710938 38.640625 -23.296875 L 35.234375 -13.875 L 27.382812 -13.875 Z M 32.09375 -23.296875 "/></g></g></g><g fill="#ff4e1f" fill-opacity="1"><g transform="translate(249.197033, 212.192594)"><g><path d="M 56.703125 -34.082031 L 26.964844 -34.082031 C 19.109375 -34.082031 13.089844 -30.941406 10.628906 -24.1875 L 4.867188 -8.378906 C 4.34375 -6.910156 4.503906 -5.445312 5.445312 -4.554688 L 10.105469 -0.785156 C 10.628906 -0.210938 11.414062 0 12.460938 0 L 44.34375 0 L 47.328125 -8.21875 L 30.835938 -8.21875 C 29.371094 -8.21875 28.640625 -9.371094 29.109375 -10.785156 L 33.664062 -23.296875 C 34.242188 -24.765625 35.757812 -25.863281 37.171875 -25.863281 L 53.71875 -25.863281 Z M 56.703125 -34.082031 "/></g></g></g><g fill="#ff4e1f" fill-opacity="1"><g transform="translate(295.006483, 212.192594)"><g><path d="M 24.867188 0 L 30.574219 -15.707031 L 36.859375 0 L 59.425781 0 L 59.527344 -0.3125 L 52.773438 -17.171875 L 71.675781 -33.769531 L 71.78125 -34.082031 L 49.214844 -34.082031 L 31.570312 -18.535156 L 37.226562 -34.082031 L 14.1875 -34.082031 L 1.832031 0 Z M 24.867188 0 "/></g></g></g><path stroke-linecap="butt" transform="matrix(0.838335, 0, 0, 0.838335, 98.71844, 219.590026)" fill="none" stroke-linejoin="miter" d="M 0.191411 17.999551 L 1.729056 17.999551 C 1.840885 17.999551 1.920097 17.924999 1.920097 17.808511 L 1.920097 14.160098 L 11.52339 14.160098 L 11.52339 17.808511 C 11.52339 17.924999 11.597943 17.999551 11.714431 17.999551 L 13.247417 17.999551 C 13.363905 17.999551 13.438458 17.924999 13.438458 17.808511 L 13.438458 8.591958 C 13.438458 8.47547 13.363905 8.400917 13.247417 8.400917 L 11.714431 8.400917 C 11.597943 8.400917 11.52339 8.47547 11.52339 8.591958 L 11.52339 12.240371 L 1.920097 12.240371 L 1.920097 8.591958 C 1.920097 8.47547 1.840885 8.400917 1.729056 8.400917 L 0.191411 8.400917 C 0.0749227 8.400917 0.000370237 8.47547 0.000370237 8.591958 L 0.000370237 17.808511 C 0.000370237 17.924999 0.0749227 17.999551 0.191411 17.999551 Z M 23.610214 17.999551 L 33.129636 17.999551 C 34.261902 17.999551 35.086639 17.174814 35.086639 16.042548 L 35.086639 10.35792 C 35.086639 9.225654 34.261902 8.400917 33.129636 8.400917 L 23.610214 8.400917 C 22.473288 8.400917 21.648551 9.225654 21.648551 10.35792 L 21.648551 16.042548 C 21.648551 17.174814 22.473288 17.999551 23.610214 17.999551 Z M 23.955019 16.079825 C 23.740681 16.079825 23.568278 15.907422 23.568278 15.693083 L 23.568278 10.707385 C 23.568278 10.488387 23.740681 10.320644 23.955019 10.320644 L 32.78483 10.320644 C 32.999169 10.320644 33.171571 10.488387 33.171571 10.707385 L 33.171571 15.693083 C 33.171571 15.907422 32.999169 16.079825 32.78483 16.079825 Z M 43.487773 17.999551 L 54.777816 17.999551 C 55.910083 17.999551 56.73482 17.174814 56.73482 16.042548 L 56.73482 14.197374 C 56.73482 13.833931 56.641629 13.484466 56.487864 13.200234 C 56.641629 12.916003 56.73482 12.566538 56.73482 12.203095 L 56.73482 10.35792 C 56.73482 9.225654 55.910083 8.400917 54.777816 8.400917 L 43.487773 8.400917 C 43.371285 8.400917 43.296732 8.47547 43.296732 8.591958 L 43.296732 17.808511 C 43.296732 17.924999 43.371285 17.999551 43.487773 17.999551 Z M 45.221118 16.079825 L 45.221118 14.160098 L 54.433011 14.160098 C 54.64735 14.160098 54.819752 14.3325 54.819752 14.546839 L 54.819752 15.693083 C 54.819752 15.907422 54.64735 16.079825 54.433011 16.079825 Z M 45.221118 12.240371 L 45.221118 10.320644 L 54.433011 10.320644 C 54.64735 10.320644 54.819752 10.488387 54.819752 10.707385 L 54.819752 11.85363 C 54.819752 12.063309 54.64735 12.240371 54.433011 12.240371 Z M 65.135954 17.999551 L 76.425997 17.999551 C 77.558263 17.999551 78.383 17.174814 78.383 16.042548 L 78.383 14.197374 C 78.383 13.833931 78.28981 13.484466 78.136045 13.200234 C 78.28981 12.916003 78.383 12.566538 78.383 12.203095 L 78.383 10.35792 C 78.383 9.225654 77.558263 8.400917 76.425997 8.400917 L 65.135954 8.400917 C 65.019466 8.400917 64.944913 8.47547 64.944913 8.591958 L 64.944913 17.808511 C 64.944913 17.924999 65.019466 17.999551 65.135954 17.999551 Z M 66.869299 16.079825 L 66.869299 14.160098 L 76.081192 14.160098 C 76.295531 14.160098 76.467933 14.3325 76.467933 14.546839 L 76.467933 15.693083 C 76.467933 15.907422 76.295531 16.079825 76.081192 16.079825 Z M 66.869299 12.240371 L 66.869299 10.320644 L 76.081192 10.320644 C 76.295531 10.320644 76.467933 10.488387 76.467933 10.707385 L 76.467933 11.85363 C 76.467933 12.063309 76.295531 12.240371 76.081192 12.240371 Z M 86.784135 17.999551 L 88.32178 17.999551 C 88.438268 17.999551 88.51748 17.924999 88.51748 17.808511 L 88.51748 8.591958 C 88.51748 8.47547 88.438268 8.400917 88.32178 8.400917 L 86.784135 8.400917 C 86.667647 8.400917 86.593094 8.47547 86.593094 8.591958 L 86.593094 17.808511 C 86.593094 17.924999 86.667647 17.999551 86.784135 17.999551 Z M 98.689236 17.999551 L 109.97928 17.999551 C 110.095768 17.999551 110.170321 17.924999 110.170321 17.808511 L 110.170321 16.270865 C 110.170321 16.159037 110.095768 16.079825 109.97928 16.079825 L 99.034042 16.079825 C 98.819703 16.079825 98.65196 15.907422 98.65196 15.693083 L 98.65196 14.160098 L 109.056693 14.160098 C 109.210457 14.160098 109.289669 14.080886 109.289669 13.969057 L 109.289669 12.431412 C 109.289669 12.319583 109.210457 12.240371 109.056693 12.240371 L 98.65196 12.240371 L 98.65196 10.707385 C 98.65196 10.488387 98.819703 10.320644 99.034042 10.320644 L 109.97928 10.320644 C 110.095768 10.320644 110.170321 10.241432 110.170321 10.129603 L 110.170321 8.591958 C 110.170321 8.47547 110.095768 8.400917 109.97928 8.400917 L 98.689236 8.400917 C 97.55697 8.400917 96.732233 9.225654 96.732233 10.35792 L 96.732233 16.042548 C 96.732233 17.174814 97.55697 17.999551 98.689236 17.999551 Z M 118.571455 17.999551 L 129.856839 17.999551 C 130.993765 17.999551 131.818502 17.174814 131.818502 16.042548 L 131.818502 14.197374 C 131.818502 13.065108 130.993765 12.240371 129.856839 12.240371 L 120.686882 12.240371 C 120.467884 12.240371 120.300141 12.063309 120.300141 11.85363 L 120.300141 10.707385 C 120.300141 10.488387 120.467884 10.320644 120.686882 10.320644 L 131.627461 10.320644 C 131.743949 10.320644 131.818502 10.241432 131.818502 10.129603 L 131.818502 8.591958 C 131.818502 8.47547 131.743949 8.400917 131.627461 8.400917 L 120.337417 8.400917 C 119.205151 8.400917 118.380414 9.225654 118.380414 10.35792 L 118.380414 12.203095 C 118.380414 13.335361 119.205151 14.160098 120.337417 14.160098 L 129.516693 14.160098 C 129.726372 14.160098 129.898775 14.3325 129.898775 14.546839 L 129.898775 15.693083 C 129.898775 15.907422 129.726372 16.079825 129.516693 16.079825 L 118.571455 16.079825 C 118.454967 16.079825 118.380414 16.159037 118.380414 16.270865 L 118.380414 17.808511 C 118.380414 17.924999 118.454967 17.999551 118.571455 17.999551 Z M 118.571455 17.999551 " stroke="#0a5ec2" stroke-width="5.040762" stroke-opacity="1" stroke-miterlimit="4"/><g fill="#ff4e1f" fill-opacity="1"><g transform="translate(98.71844, 234.680064)"><g><path d="M 0.160156 0 L 1.449219 0 C 1.546875 0 1.609375 -0.0625 1.609375 -0.160156 L 1.609375 -3.21875 L 9.65625 -3.21875 L 9.65625 -0.160156 C 9.65625 -0.0625 9.722656 0 9.820312 0 L 11.105469 0 C 11.203125 0 11.265625 -0.0625 11.265625 -0.160156 L 11.265625 -7.886719 C 11.265625 -7.984375 11.203125 -8.046875 11.105469 -8.046875 L 9.820312 -8.046875 C 9.722656 -8.046875 9.65625 -7.984375 9.65625 -7.886719 L 9.65625 -4.828125 L 1.609375 -4.828125 L 1.609375 -7.886719 C 1.609375 -7.984375 1.546875 -8.046875 1.449219 -8.046875 L 0.160156 -8.046875 C 0.0625 -8.046875 0 -7.984375 0 -7.886719 L 0 -0.160156 C 0 -0.0625 0.0625 0 0.160156 0 Z M 0.160156 0 "/></g></g></g><g fill="#ff4e1f" fill-opacity="1"><g transform="translate(116.867155, 234.680064)"><g><path d="M 1.640625 0 L 9.625 0 C 10.574219 0 11.265625 -0.691406 11.265625 -1.640625 L 11.265625 -6.40625 C 11.265625 -7.355469 10.574219 -8.046875 9.625 -8.046875 L 1.640625 -8.046875 C 0.691406 -8.046875 0 -7.355469 0 -6.40625 L 0 -1.640625 C 0 -0.691406 0.691406 0 1.640625 0 Z M 1.929688 -1.609375 C 1.753906 -1.609375 1.609375 -1.753906 1.609375 -1.929688 L 1.609375 -6.117188 C 1.609375 -6.292969 1.753906 -6.4375 1.929688 -6.4375 L 9.335938 -6.4375 C 9.511719 -6.4375 9.65625 -6.292969 9.65625 -6.117188 L 9.65625 -1.929688 C 9.65625 -1.753906 9.511719 -1.609375 9.335938 -1.609375 Z M 1.929688 -1.609375 "/></g></g></g><g fill="#ff4e1f" fill-opacity="1"><g transform="translate(135.01587, 234.680064)"><g><path d="M 0.160156 0 L 9.625 0 C 10.574219 0 11.265625 -0.691406 11.265625 -1.640625 L 11.265625 -3.1875 C 11.265625 -3.492188 11.1875 -3.78125 11.058594 -4.023438 C 11.1875 -4.265625 11.265625 -4.554688 11.265625 -4.859375 L 11.265625 -6.40625 C 11.265625 -7.355469 10.574219 -8.046875 9.625 -8.046875 L 0.160156 -8.046875 C 0.0625 -8.046875 0 -7.984375 0 -7.886719 L 0 -0.160156 C 0 -0.0625 0.0625 0 0.160156 0 Z M 1.609375 -1.609375 L 1.609375 -3.21875 L 9.335938 -3.21875 C 9.511719 -3.21875 9.65625 -3.074219 9.65625 -2.898438 L 9.65625 -1.929688 C 9.65625 -1.753906 9.511719 -1.609375 9.335938 -1.609375 Z M 1.609375 -4.828125 L 1.609375 -6.4375 L 9.335938 -6.4375 C 9.511719 -6.4375 9.65625 -6.292969 9.65625 -6.117188 L 9.65625 -5.152344 C 9.65625 -4.972656 9.511719 -4.828125 9.335938 -4.828125 Z M 1.609375 -4.828125 "/></g></g></g><g fill="#ff4e1f" fill-opacity="1"><g transform="translate(153.164583, 234.680064)"><g><path d="M 0.160156 0 L 9.625 0 C 10.574219 0 11.265625 -0.691406 11.265625 -1.640625 L 11.265625 -3.1875 C 11.265625 -3.492188 11.1875 -3.78125 11.058594 -4.023438 C 11.1875 -4.265625 11.265625 -4.554688 11.265625 -4.859375 L 11.265625 -6.40625 C 11.265625 -7.355469 10.574219 -8.046875 9.625 -8.046875 L 0.160156 -8.046875 C 0.0625 -8.046875 0 -7.984375 0 -7.886719 L 0 -0.160156 C 0 -0.0625 0.0625 0 0.160156 0 Z M 1.609375 -1.609375 L 1.609375 -3.21875 L 9.335938 -3.21875 C 9.511719 -3.21875 9.65625 -3.074219 9.65625 -2.898438 L 9.65625 -1.929688 C 9.65625 -1.753906 9.511719 -1.609375 9.335938 -1.609375 Z M 1.609375 -4.828125 L 1.609375 -6.4375 L 9.335938 -6.4375 C 9.511719 -6.4375 9.65625 -6.292969 9.65625 -6.117188 L 9.65625 -5.152344 C 9.65625 -4.972656 9.511719 -4.828125 9.335938 -4.828125 Z M 1.609375 -4.828125 "/></g></g></g><g fill="#ff4e1f" fill-opacity="1"><g transform="translate(171.3133, 234.680064)"><g><path d="M 0.160156 0 L 1.449219 0 C 1.546875 0 1.609375 -0.0625 1.609375 -0.160156 L 1.609375 -7.886719 C 1.609375 -7.984375 1.546875 -8.046875 1.449219 -8.046875 L 0.160156 -8.046875 C 0.0625 -8.046875 0 -7.984375 0 -7.886719 L 0 -0.160156 C 0 -0.0625 0.0625 0 0.160156 0 Z M 0.160156 0 "/></g></g></g><g fill="#ff4e1f" fill-opacity="1"><g transform="translate(179.810708, 234.680064)"><g><path d="M 1.640625 0 L 11.105469 0 C 11.203125 0 11.265625 -0.0625 11.265625 -0.160156 L 11.265625 -1.449219 C 11.265625 -1.546875 11.203125 -1.609375 11.105469 -1.609375 L 1.929688 -1.609375 C 1.753906 -1.609375 1.609375 -1.753906 1.609375 -1.929688 L 1.609375 -3.21875 L 10.332031 -3.21875 C 10.460938 -3.21875 10.527344 -3.285156 10.527344 -3.378906 L 10.527344 -4.667969 C 10.527344 -4.765625 10.460938 -4.828125 10.332031 -4.828125 L 1.609375 -4.828125 L 1.609375 -6.117188 C 1.609375 -6.292969 1.753906 -6.4375 1.929688 -6.4375 L 11.105469 -6.4375 C 11.203125 -6.4375 11.265625 -6.503906 11.265625 -6.597656 L 11.265625 -7.886719 C 11.265625 -7.984375 11.203125 -8.046875 11.105469 -8.046875 L 1.640625 -8.046875 C 0.691406 -8.046875 0 -7.355469 0 -6.40625 L 0 -1.640625 C 0 -0.691406 0.691406 0 1.640625 0 Z M 1.640625 0 "/></g></g></g><g fill="#ff4e1f" fill-opacity="1"><g transform="translate(197.959424, 234.680064)"><g><path d="M 0.160156 0 L 9.625 0 C 10.574219 0 11.265625 -0.691406 11.265625 -1.640625 L 11.265625 -3.1875 C 11.265625 -4.136719 10.574219 -4.828125 9.625 -4.828125 L 1.929688 -4.828125 C 1.753906 -4.828125 1.609375 -4.972656 1.609375 -5.152344 L 1.609375 -6.117188 C 1.609375 -6.292969 1.753906 -6.4375 1.929688 -6.4375 L 11.105469 -6.4375 C 11.203125 -6.4375 11.265625 -6.503906 11.265625 -6.597656 L 11.265625 -7.886719 C 11.265625 -7.984375 11.203125 -8.046875 11.105469 -8.046875 L 1.640625 -8.046875 C 0.691406 -8.046875 0 -7.355469 0 -6.40625 L 0 -4.859375 C 0 -3.910156 0.691406 -3.21875 1.640625 -3.21875 L 9.335938 -3.21875 C 9.511719 -3.21875 9.65625 -3.074219 9.65625 -2.898438 L 9.65625 -1.929688 C 9.65625 -1.753906 9.511719 -1.609375 9.335938 -1.609375 L 0.160156 -1.609375 C 0.0625 -1.609375 0 -1.546875 0 -1.449219 L 0 -0.160156 C 0 -0.0625 0.0625 0 0.160156 0 Z M 0.160156 0 "/></g></g></g></svg>